%TF.GenerationSoftware,KiCad,Pcbnew,7.0.7*%
%TF.CreationDate,2023-10-14T23:25:39+09:00*%
%TF.ProjectId,TMA-1,544d412d-312e-46b6-9963-61645f706362,rev?*%
%TF.SameCoordinates,Original*%
%TF.FileFunction,Drillmap*%
%TF.FilePolarity,Positive*%
%FSLAX45Y45*%
G04 Gerber Fmt 4.5, Leading zero omitted, Abs format (unit mm)*
G04 Created by KiCad (PCBNEW 7.0.7) date 2023-10-14 23:25:39*
%MOMM*%
%LPD*%
G01*
G04 APERTURE LIST*
%ADD10C,0.100000*%
%ADD11C,0.200000*%
%ADD12C,0.320000*%
G04 APERTURE END LIST*
D10*
X21031200Y-15913100D02*
X7874000Y-15913100D01*
X21640800Y-3568700D02*
G75*
G03*
X21031200Y-2959100I-609600J0D01*
G01*
X7874000Y-2959100D02*
X21031200Y-2959100D01*
X7264400Y-15303500D02*
G75*
G03*
X7874000Y-15913100I609600J0D01*
G01*
X21031200Y-15913100D02*
G75*
G03*
X21640800Y-15303500I0J609600D01*
G01*
X7264400Y-15303500D02*
X7264400Y-3568700D01*
X7874000Y-2959100D02*
G75*
G03*
X7264400Y-3568700I0J-609600D01*
G01*
X21640800Y-3568700D02*
X21640800Y-15303500D01*
D11*
D12*
X15103600Y-4144400D02*
X15423600Y-4464400D01*
X15423600Y-4144400D02*
X15103600Y-4464400D01*
X20623600Y-4144400D02*
X20943600Y-4464400D01*
X20943600Y-4144400D02*
X20623600Y-4464400D01*
D11*
X7520177Y-16229584D02*
X7520177Y-16029584D01*
X7520177Y-16029584D02*
X7567796Y-16029584D01*
X7567796Y-16029584D02*
X7596367Y-16039108D01*
X7596367Y-16039108D02*
X7615415Y-16058155D01*
X7615415Y-16058155D02*
X7624939Y-16077203D01*
X7624939Y-16077203D02*
X7634462Y-16115298D01*
X7634462Y-16115298D02*
X7634462Y-16143869D01*
X7634462Y-16143869D02*
X7624939Y-16181965D01*
X7624939Y-16181965D02*
X7615415Y-16201012D01*
X7615415Y-16201012D02*
X7596367Y-16220060D01*
X7596367Y-16220060D02*
X7567796Y-16229584D01*
X7567796Y-16229584D02*
X7520177Y-16229584D01*
X7720177Y-16229584D02*
X7720177Y-16096250D01*
X7720177Y-16134346D02*
X7729701Y-16115298D01*
X7729701Y-16115298D02*
X7739224Y-16105774D01*
X7739224Y-16105774D02*
X7758272Y-16096250D01*
X7758272Y-16096250D02*
X7777320Y-16096250D01*
X7843986Y-16229584D02*
X7843986Y-16096250D01*
X7843986Y-16029584D02*
X7834462Y-16039108D01*
X7834462Y-16039108D02*
X7843986Y-16048631D01*
X7843986Y-16048631D02*
X7853510Y-16039108D01*
X7853510Y-16039108D02*
X7843986Y-16029584D01*
X7843986Y-16029584D02*
X7843986Y-16048631D01*
X7967796Y-16229584D02*
X7948748Y-16220060D01*
X7948748Y-16220060D02*
X7939224Y-16201012D01*
X7939224Y-16201012D02*
X7939224Y-16029584D01*
X8072558Y-16229584D02*
X8053510Y-16220060D01*
X8053510Y-16220060D02*
X8043986Y-16201012D01*
X8043986Y-16201012D02*
X8043986Y-16029584D01*
X8301129Y-16229584D02*
X8301129Y-16029584D01*
X8301129Y-16029584D02*
X8367796Y-16172441D01*
X8367796Y-16172441D02*
X8434463Y-16029584D01*
X8434463Y-16029584D02*
X8434463Y-16229584D01*
X8615415Y-16229584D02*
X8615415Y-16124822D01*
X8615415Y-16124822D02*
X8605891Y-16105774D01*
X8605891Y-16105774D02*
X8586844Y-16096250D01*
X8586844Y-16096250D02*
X8548748Y-16096250D01*
X8548748Y-16096250D02*
X8529701Y-16105774D01*
X8615415Y-16220060D02*
X8596367Y-16229584D01*
X8596367Y-16229584D02*
X8548748Y-16229584D01*
X8548748Y-16229584D02*
X8529701Y-16220060D01*
X8529701Y-16220060D02*
X8520177Y-16201012D01*
X8520177Y-16201012D02*
X8520177Y-16181965D01*
X8520177Y-16181965D02*
X8529701Y-16162917D01*
X8529701Y-16162917D02*
X8548748Y-16153393D01*
X8548748Y-16153393D02*
X8596367Y-16153393D01*
X8596367Y-16153393D02*
X8615415Y-16143869D01*
X8710653Y-16096250D02*
X8710653Y-16296250D01*
X8710653Y-16105774D02*
X8729701Y-16096250D01*
X8729701Y-16096250D02*
X8767796Y-16096250D01*
X8767796Y-16096250D02*
X8786844Y-16105774D01*
X8786844Y-16105774D02*
X8796367Y-16115298D01*
X8796367Y-16115298D02*
X8805891Y-16134346D01*
X8805891Y-16134346D02*
X8805891Y-16191488D01*
X8805891Y-16191488D02*
X8796367Y-16210536D01*
X8796367Y-16210536D02*
X8786844Y-16220060D01*
X8786844Y-16220060D02*
X8767796Y-16229584D01*
X8767796Y-16229584D02*
X8729701Y-16229584D01*
X8729701Y-16229584D02*
X8710653Y-16220060D01*
X8891605Y-16210536D02*
X8901129Y-16220060D01*
X8901129Y-16220060D02*
X8891605Y-16229584D01*
X8891605Y-16229584D02*
X8882082Y-16220060D01*
X8882082Y-16220060D02*
X8891605Y-16210536D01*
X8891605Y-16210536D02*
X8891605Y-16229584D01*
X8891605Y-16105774D02*
X8901129Y-16115298D01*
X8901129Y-16115298D02*
X8891605Y-16124822D01*
X8891605Y-16124822D02*
X8882082Y-16115298D01*
X8882082Y-16115298D02*
X8891605Y-16105774D01*
X8891605Y-16105774D02*
X8891605Y-16124822D01*
X7059400Y-16458100D02*
X7259400Y-16658100D01*
X7259400Y-16458100D02*
X7059400Y-16658100D01*
X7501129Y-16449584D02*
X7624939Y-16449584D01*
X7624939Y-16449584D02*
X7558272Y-16525774D01*
X7558272Y-16525774D02*
X7586843Y-16525774D01*
X7586843Y-16525774D02*
X7605891Y-16535298D01*
X7605891Y-16535298D02*
X7615415Y-16544822D01*
X7615415Y-16544822D02*
X7624939Y-16563869D01*
X7624939Y-16563869D02*
X7624939Y-16611488D01*
X7624939Y-16611488D02*
X7615415Y-16630536D01*
X7615415Y-16630536D02*
X7605891Y-16640060D01*
X7605891Y-16640060D02*
X7586843Y-16649584D01*
X7586843Y-16649584D02*
X7529701Y-16649584D01*
X7529701Y-16649584D02*
X7510653Y-16640060D01*
X7510653Y-16640060D02*
X7501129Y-16630536D01*
X7710653Y-16630536D02*
X7720177Y-16640060D01*
X7720177Y-16640060D02*
X7710653Y-16649584D01*
X7710653Y-16649584D02*
X7701129Y-16640060D01*
X7701129Y-16640060D02*
X7710653Y-16630536D01*
X7710653Y-16630536D02*
X7710653Y-16649584D01*
X7796367Y-16468631D02*
X7805891Y-16459108D01*
X7805891Y-16459108D02*
X7824939Y-16449584D01*
X7824939Y-16449584D02*
X7872558Y-16449584D01*
X7872558Y-16449584D02*
X7891605Y-16459108D01*
X7891605Y-16459108D02*
X7901129Y-16468631D01*
X7901129Y-16468631D02*
X7910653Y-16487679D01*
X7910653Y-16487679D02*
X7910653Y-16506727D01*
X7910653Y-16506727D02*
X7901129Y-16535298D01*
X7901129Y-16535298D02*
X7786843Y-16649584D01*
X7786843Y-16649584D02*
X7910653Y-16649584D01*
X8034462Y-16449584D02*
X8053510Y-16449584D01*
X8053510Y-16449584D02*
X8072558Y-16459108D01*
X8072558Y-16459108D02*
X8082082Y-16468631D01*
X8082082Y-16468631D02*
X8091605Y-16487679D01*
X8091605Y-16487679D02*
X8101129Y-16525774D01*
X8101129Y-16525774D02*
X8101129Y-16573393D01*
X8101129Y-16573393D02*
X8091605Y-16611488D01*
X8091605Y-16611488D02*
X8082082Y-16630536D01*
X8082082Y-16630536D02*
X8072558Y-16640060D01*
X8072558Y-16640060D02*
X8053510Y-16649584D01*
X8053510Y-16649584D02*
X8034462Y-16649584D01*
X8034462Y-16649584D02*
X8015415Y-16640060D01*
X8015415Y-16640060D02*
X8005891Y-16630536D01*
X8005891Y-16630536D02*
X7996367Y-16611488D01*
X7996367Y-16611488D02*
X7986843Y-16573393D01*
X7986843Y-16573393D02*
X7986843Y-16525774D01*
X7986843Y-16525774D02*
X7996367Y-16487679D01*
X7996367Y-16487679D02*
X8005891Y-16468631D01*
X8005891Y-16468631D02*
X8015415Y-16459108D01*
X8015415Y-16459108D02*
X8034462Y-16449584D01*
X8224939Y-16449584D02*
X8243986Y-16449584D01*
X8243986Y-16449584D02*
X8263034Y-16459108D01*
X8263034Y-16459108D02*
X8272558Y-16468631D01*
X8272558Y-16468631D02*
X8282082Y-16487679D01*
X8282082Y-16487679D02*
X8291605Y-16525774D01*
X8291605Y-16525774D02*
X8291605Y-16573393D01*
X8291605Y-16573393D02*
X8282082Y-16611488D01*
X8282082Y-16611488D02*
X8272558Y-16630536D01*
X8272558Y-16630536D02*
X8263034Y-16640060D01*
X8263034Y-16640060D02*
X8243986Y-16649584D01*
X8243986Y-16649584D02*
X8224939Y-16649584D01*
X8224939Y-16649584D02*
X8205891Y-16640060D01*
X8205891Y-16640060D02*
X8196367Y-16630536D01*
X8196367Y-16630536D02*
X8186843Y-16611488D01*
X8186843Y-16611488D02*
X8177320Y-16573393D01*
X8177320Y-16573393D02*
X8177320Y-16525774D01*
X8177320Y-16525774D02*
X8186843Y-16487679D01*
X8186843Y-16487679D02*
X8196367Y-16468631D01*
X8196367Y-16468631D02*
X8205891Y-16459108D01*
X8205891Y-16459108D02*
X8224939Y-16449584D01*
X8377320Y-16649584D02*
X8377320Y-16516250D01*
X8377320Y-16535298D02*
X8386843Y-16525774D01*
X8386843Y-16525774D02*
X8405891Y-16516250D01*
X8405891Y-16516250D02*
X8434463Y-16516250D01*
X8434463Y-16516250D02*
X8453510Y-16525774D01*
X8453510Y-16525774D02*
X8463034Y-16544822D01*
X8463034Y-16544822D02*
X8463034Y-16649584D01*
X8463034Y-16544822D02*
X8472558Y-16525774D01*
X8472558Y-16525774D02*
X8491605Y-16516250D01*
X8491605Y-16516250D02*
X8520177Y-16516250D01*
X8520177Y-16516250D02*
X8539225Y-16525774D01*
X8539225Y-16525774D02*
X8548748Y-16544822D01*
X8548748Y-16544822D02*
X8548748Y-16649584D01*
X8643986Y-16649584D02*
X8643986Y-16516250D01*
X8643986Y-16535298D02*
X8653510Y-16525774D01*
X8653510Y-16525774D02*
X8672558Y-16516250D01*
X8672558Y-16516250D02*
X8701129Y-16516250D01*
X8701129Y-16516250D02*
X8720177Y-16525774D01*
X8720177Y-16525774D02*
X8729701Y-16544822D01*
X8729701Y-16544822D02*
X8729701Y-16649584D01*
X8729701Y-16544822D02*
X8739225Y-16525774D01*
X8739225Y-16525774D02*
X8758272Y-16516250D01*
X8758272Y-16516250D02*
X8786844Y-16516250D01*
X8786844Y-16516250D02*
X8805891Y-16525774D01*
X8805891Y-16525774D02*
X8815415Y-16544822D01*
X8815415Y-16544822D02*
X8815415Y-16649584D01*
X9205891Y-16440060D02*
X9034463Y-16697203D01*
X9463034Y-16449584D02*
X9482082Y-16449584D01*
X9482082Y-16449584D02*
X9501129Y-16459108D01*
X9501129Y-16459108D02*
X9510653Y-16468631D01*
X9510653Y-16468631D02*
X9520177Y-16487679D01*
X9520177Y-16487679D02*
X9529701Y-16525774D01*
X9529701Y-16525774D02*
X9529701Y-16573393D01*
X9529701Y-16573393D02*
X9520177Y-16611488D01*
X9520177Y-16611488D02*
X9510653Y-16630536D01*
X9510653Y-16630536D02*
X9501129Y-16640060D01*
X9501129Y-16640060D02*
X9482082Y-16649584D01*
X9482082Y-16649584D02*
X9463034Y-16649584D01*
X9463034Y-16649584D02*
X9443987Y-16640060D01*
X9443987Y-16640060D02*
X9434463Y-16630536D01*
X9434463Y-16630536D02*
X9424939Y-16611488D01*
X9424939Y-16611488D02*
X9415415Y-16573393D01*
X9415415Y-16573393D02*
X9415415Y-16525774D01*
X9415415Y-16525774D02*
X9424939Y-16487679D01*
X9424939Y-16487679D02*
X9434463Y-16468631D01*
X9434463Y-16468631D02*
X9443987Y-16459108D01*
X9443987Y-16459108D02*
X9463034Y-16449584D01*
X9615415Y-16630536D02*
X9624939Y-16640060D01*
X9624939Y-16640060D02*
X9615415Y-16649584D01*
X9615415Y-16649584D02*
X9605891Y-16640060D01*
X9605891Y-16640060D02*
X9615415Y-16630536D01*
X9615415Y-16630536D02*
X9615415Y-16649584D01*
X9815415Y-16649584D02*
X9701129Y-16649584D01*
X9758272Y-16649584D02*
X9758272Y-16449584D01*
X9758272Y-16449584D02*
X9739225Y-16478155D01*
X9739225Y-16478155D02*
X9720177Y-16497203D01*
X9720177Y-16497203D02*
X9701129Y-16506727D01*
X9891606Y-16468631D02*
X9901129Y-16459108D01*
X9901129Y-16459108D02*
X9920177Y-16449584D01*
X9920177Y-16449584D02*
X9967796Y-16449584D01*
X9967796Y-16449584D02*
X9986844Y-16459108D01*
X9986844Y-16459108D02*
X9996368Y-16468631D01*
X9996368Y-16468631D02*
X10005891Y-16487679D01*
X10005891Y-16487679D02*
X10005891Y-16506727D01*
X10005891Y-16506727D02*
X9996368Y-16535298D01*
X9996368Y-16535298D02*
X9882082Y-16649584D01*
X9882082Y-16649584D02*
X10005891Y-16649584D01*
X10177320Y-16449584D02*
X10139225Y-16449584D01*
X10139225Y-16449584D02*
X10120177Y-16459108D01*
X10120177Y-16459108D02*
X10110653Y-16468631D01*
X10110653Y-16468631D02*
X10091606Y-16497203D01*
X10091606Y-16497203D02*
X10082082Y-16535298D01*
X10082082Y-16535298D02*
X10082082Y-16611488D01*
X10082082Y-16611488D02*
X10091606Y-16630536D01*
X10091606Y-16630536D02*
X10101129Y-16640060D01*
X10101129Y-16640060D02*
X10120177Y-16649584D01*
X10120177Y-16649584D02*
X10158272Y-16649584D01*
X10158272Y-16649584D02*
X10177320Y-16640060D01*
X10177320Y-16640060D02*
X10186844Y-16630536D01*
X10186844Y-16630536D02*
X10196368Y-16611488D01*
X10196368Y-16611488D02*
X10196368Y-16563869D01*
X10196368Y-16563869D02*
X10186844Y-16544822D01*
X10186844Y-16544822D02*
X10177320Y-16535298D01*
X10177320Y-16535298D02*
X10158272Y-16525774D01*
X10158272Y-16525774D02*
X10120177Y-16525774D01*
X10120177Y-16525774D02*
X10101129Y-16535298D01*
X10101129Y-16535298D02*
X10091606Y-16544822D01*
X10091606Y-16544822D02*
X10082082Y-16563869D01*
X10320177Y-16449584D02*
X10339225Y-16449584D01*
X10339225Y-16449584D02*
X10358272Y-16459108D01*
X10358272Y-16459108D02*
X10367796Y-16468631D01*
X10367796Y-16468631D02*
X10377320Y-16487679D01*
X10377320Y-16487679D02*
X10386844Y-16525774D01*
X10386844Y-16525774D02*
X10386844Y-16573393D01*
X10386844Y-16573393D02*
X10377320Y-16611488D01*
X10377320Y-16611488D02*
X10367796Y-16630536D01*
X10367796Y-16630536D02*
X10358272Y-16640060D01*
X10358272Y-16640060D02*
X10339225Y-16649584D01*
X10339225Y-16649584D02*
X10320177Y-16649584D01*
X10320177Y-16649584D02*
X10301129Y-16640060D01*
X10301129Y-16640060D02*
X10291606Y-16630536D01*
X10291606Y-16630536D02*
X10282082Y-16611488D01*
X10282082Y-16611488D02*
X10272558Y-16573393D01*
X10272558Y-16573393D02*
X10272558Y-16525774D01*
X10272558Y-16525774D02*
X10282082Y-16487679D01*
X10282082Y-16487679D02*
X10291606Y-16468631D01*
X10291606Y-16468631D02*
X10301129Y-16459108D01*
X10301129Y-16459108D02*
X10320177Y-16449584D01*
X10463034Y-16449584D02*
X10463034Y-16487679D01*
X10539225Y-16449584D02*
X10539225Y-16487679D01*
X10834463Y-16725774D02*
X10824939Y-16716250D01*
X10824939Y-16716250D02*
X10805891Y-16687679D01*
X10805891Y-16687679D02*
X10796368Y-16668631D01*
X10796368Y-16668631D02*
X10786844Y-16640060D01*
X10786844Y-16640060D02*
X10777320Y-16592441D01*
X10777320Y-16592441D02*
X10777320Y-16554346D01*
X10777320Y-16554346D02*
X10786844Y-16506727D01*
X10786844Y-16506727D02*
X10796368Y-16478155D01*
X10796368Y-16478155D02*
X10805891Y-16459108D01*
X10805891Y-16459108D02*
X10824939Y-16430536D01*
X10824939Y-16430536D02*
X10834463Y-16421012D01*
X10901130Y-16468631D02*
X10910653Y-16459108D01*
X10910653Y-16459108D02*
X10929701Y-16449584D01*
X10929701Y-16449584D02*
X10977320Y-16449584D01*
X10977320Y-16449584D02*
X10996368Y-16459108D01*
X10996368Y-16459108D02*
X11005891Y-16468631D01*
X11005891Y-16468631D02*
X11015415Y-16487679D01*
X11015415Y-16487679D02*
X11015415Y-16506727D01*
X11015415Y-16506727D02*
X11005891Y-16535298D01*
X11005891Y-16535298D02*
X10891606Y-16649584D01*
X10891606Y-16649584D02*
X11015415Y-16649584D01*
X11253510Y-16649584D02*
X11253510Y-16449584D01*
X11339225Y-16649584D02*
X11339225Y-16544822D01*
X11339225Y-16544822D02*
X11329701Y-16525774D01*
X11329701Y-16525774D02*
X11310653Y-16516250D01*
X11310653Y-16516250D02*
X11282082Y-16516250D01*
X11282082Y-16516250D02*
X11263034Y-16525774D01*
X11263034Y-16525774D02*
X11253510Y-16535298D01*
X11463034Y-16649584D02*
X11443987Y-16640060D01*
X11443987Y-16640060D02*
X11434463Y-16630536D01*
X11434463Y-16630536D02*
X11424939Y-16611488D01*
X11424939Y-16611488D02*
X11424939Y-16554346D01*
X11424939Y-16554346D02*
X11434463Y-16535298D01*
X11434463Y-16535298D02*
X11443987Y-16525774D01*
X11443987Y-16525774D02*
X11463034Y-16516250D01*
X11463034Y-16516250D02*
X11491606Y-16516250D01*
X11491606Y-16516250D02*
X11510653Y-16525774D01*
X11510653Y-16525774D02*
X11520177Y-16535298D01*
X11520177Y-16535298D02*
X11529701Y-16554346D01*
X11529701Y-16554346D02*
X11529701Y-16611488D01*
X11529701Y-16611488D02*
X11520177Y-16630536D01*
X11520177Y-16630536D02*
X11510653Y-16640060D01*
X11510653Y-16640060D02*
X11491606Y-16649584D01*
X11491606Y-16649584D02*
X11463034Y-16649584D01*
X11643987Y-16649584D02*
X11624939Y-16640060D01*
X11624939Y-16640060D02*
X11615415Y-16621012D01*
X11615415Y-16621012D02*
X11615415Y-16449584D01*
X11796368Y-16640060D02*
X11777320Y-16649584D01*
X11777320Y-16649584D02*
X11739225Y-16649584D01*
X11739225Y-16649584D02*
X11720177Y-16640060D01*
X11720177Y-16640060D02*
X11710653Y-16621012D01*
X11710653Y-16621012D02*
X11710653Y-16544822D01*
X11710653Y-16544822D02*
X11720177Y-16525774D01*
X11720177Y-16525774D02*
X11739225Y-16516250D01*
X11739225Y-16516250D02*
X11777320Y-16516250D01*
X11777320Y-16516250D02*
X11796368Y-16525774D01*
X11796368Y-16525774D02*
X11805891Y-16544822D01*
X11805891Y-16544822D02*
X11805891Y-16563869D01*
X11805891Y-16563869D02*
X11710653Y-16582917D01*
X11882082Y-16640060D02*
X11901130Y-16649584D01*
X11901130Y-16649584D02*
X11939225Y-16649584D01*
X11939225Y-16649584D02*
X11958272Y-16640060D01*
X11958272Y-16640060D02*
X11967796Y-16621012D01*
X11967796Y-16621012D02*
X11967796Y-16611488D01*
X11967796Y-16611488D02*
X11958272Y-16592441D01*
X11958272Y-16592441D02*
X11939225Y-16582917D01*
X11939225Y-16582917D02*
X11910653Y-16582917D01*
X11910653Y-16582917D02*
X11891606Y-16573393D01*
X11891606Y-16573393D02*
X11882082Y-16554346D01*
X11882082Y-16554346D02*
X11882082Y-16544822D01*
X11882082Y-16544822D02*
X11891606Y-16525774D01*
X11891606Y-16525774D02*
X11910653Y-16516250D01*
X11910653Y-16516250D02*
X11939225Y-16516250D01*
X11939225Y-16516250D02*
X11958272Y-16525774D01*
X12034463Y-16725774D02*
X12043987Y-16716250D01*
X12043987Y-16716250D02*
X12063034Y-16687679D01*
X12063034Y-16687679D02*
X12072558Y-16668631D01*
X12072558Y-16668631D02*
X12082082Y-16640060D01*
X12082082Y-16640060D02*
X12091606Y-16592441D01*
X12091606Y-16592441D02*
X12091606Y-16554346D01*
X12091606Y-16554346D02*
X12082082Y-16506727D01*
X12082082Y-16506727D02*
X12072558Y-16478155D01*
X12072558Y-16478155D02*
X12063034Y-16459108D01*
X12063034Y-16459108D02*
X12043987Y-16430536D01*
X12043987Y-16430536D02*
X12034463Y-16421012D01*
X12396368Y-16725774D02*
X12386844Y-16716250D01*
X12386844Y-16716250D02*
X12367796Y-16687679D01*
X12367796Y-16687679D02*
X12358272Y-16668631D01*
X12358272Y-16668631D02*
X12348749Y-16640060D01*
X12348749Y-16640060D02*
X12339225Y-16592441D01*
X12339225Y-16592441D02*
X12339225Y-16554346D01*
X12339225Y-16554346D02*
X12348749Y-16506727D01*
X12348749Y-16506727D02*
X12358272Y-16478155D01*
X12358272Y-16478155D02*
X12367796Y-16459108D01*
X12367796Y-16459108D02*
X12386844Y-16430536D01*
X12386844Y-16430536D02*
X12396368Y-16421012D01*
X12472558Y-16516250D02*
X12472558Y-16649584D01*
X12472558Y-16535298D02*
X12482082Y-16525774D01*
X12482082Y-16525774D02*
X12501130Y-16516250D01*
X12501130Y-16516250D02*
X12529701Y-16516250D01*
X12529701Y-16516250D02*
X12548749Y-16525774D01*
X12548749Y-16525774D02*
X12558272Y-16544822D01*
X12558272Y-16544822D02*
X12558272Y-16649584D01*
X12682082Y-16649584D02*
X12663034Y-16640060D01*
X12663034Y-16640060D02*
X12653511Y-16630536D01*
X12653511Y-16630536D02*
X12643987Y-16611488D01*
X12643987Y-16611488D02*
X12643987Y-16554346D01*
X12643987Y-16554346D02*
X12653511Y-16535298D01*
X12653511Y-16535298D02*
X12663034Y-16525774D01*
X12663034Y-16525774D02*
X12682082Y-16516250D01*
X12682082Y-16516250D02*
X12710653Y-16516250D01*
X12710653Y-16516250D02*
X12729701Y-16525774D01*
X12729701Y-16525774D02*
X12739225Y-16535298D01*
X12739225Y-16535298D02*
X12748749Y-16554346D01*
X12748749Y-16554346D02*
X12748749Y-16611488D01*
X12748749Y-16611488D02*
X12739225Y-16630536D01*
X12739225Y-16630536D02*
X12729701Y-16640060D01*
X12729701Y-16640060D02*
X12710653Y-16649584D01*
X12710653Y-16649584D02*
X12682082Y-16649584D01*
X12805892Y-16516250D02*
X12882082Y-16516250D01*
X12834463Y-16449584D02*
X12834463Y-16621012D01*
X12834463Y-16621012D02*
X12843987Y-16640060D01*
X12843987Y-16640060D02*
X12863034Y-16649584D01*
X12863034Y-16649584D02*
X12882082Y-16649584D01*
X13101130Y-16516250D02*
X13101130Y-16716250D01*
X13101130Y-16525774D02*
X13120177Y-16516250D01*
X13120177Y-16516250D02*
X13158273Y-16516250D01*
X13158273Y-16516250D02*
X13177320Y-16525774D01*
X13177320Y-16525774D02*
X13186844Y-16535298D01*
X13186844Y-16535298D02*
X13196368Y-16554346D01*
X13196368Y-16554346D02*
X13196368Y-16611488D01*
X13196368Y-16611488D02*
X13186844Y-16630536D01*
X13186844Y-16630536D02*
X13177320Y-16640060D01*
X13177320Y-16640060D02*
X13158273Y-16649584D01*
X13158273Y-16649584D02*
X13120177Y-16649584D01*
X13120177Y-16649584D02*
X13101130Y-16640060D01*
X13310653Y-16649584D02*
X13291606Y-16640060D01*
X13291606Y-16640060D02*
X13282082Y-16621012D01*
X13282082Y-16621012D02*
X13282082Y-16449584D01*
X13472558Y-16649584D02*
X13472558Y-16544822D01*
X13472558Y-16544822D02*
X13463034Y-16525774D01*
X13463034Y-16525774D02*
X13443987Y-16516250D01*
X13443987Y-16516250D02*
X13405892Y-16516250D01*
X13405892Y-16516250D02*
X13386844Y-16525774D01*
X13472558Y-16640060D02*
X13453511Y-16649584D01*
X13453511Y-16649584D02*
X13405892Y-16649584D01*
X13405892Y-16649584D02*
X13386844Y-16640060D01*
X13386844Y-16640060D02*
X13377320Y-16621012D01*
X13377320Y-16621012D02*
X13377320Y-16601965D01*
X13377320Y-16601965D02*
X13386844Y-16582917D01*
X13386844Y-16582917D02*
X13405892Y-16573393D01*
X13405892Y-16573393D02*
X13453511Y-16573393D01*
X13453511Y-16573393D02*
X13472558Y-16563869D01*
X13539225Y-16516250D02*
X13615415Y-16516250D01*
X13567796Y-16449584D02*
X13567796Y-16621012D01*
X13567796Y-16621012D02*
X13577320Y-16640060D01*
X13577320Y-16640060D02*
X13596368Y-16649584D01*
X13596368Y-16649584D02*
X13615415Y-16649584D01*
X13758273Y-16640060D02*
X13739225Y-16649584D01*
X13739225Y-16649584D02*
X13701130Y-16649584D01*
X13701130Y-16649584D02*
X13682082Y-16640060D01*
X13682082Y-16640060D02*
X13672558Y-16621012D01*
X13672558Y-16621012D02*
X13672558Y-16544822D01*
X13672558Y-16544822D02*
X13682082Y-16525774D01*
X13682082Y-16525774D02*
X13701130Y-16516250D01*
X13701130Y-16516250D02*
X13739225Y-16516250D01*
X13739225Y-16516250D02*
X13758273Y-16525774D01*
X13758273Y-16525774D02*
X13767796Y-16544822D01*
X13767796Y-16544822D02*
X13767796Y-16563869D01*
X13767796Y-16563869D02*
X13672558Y-16582917D01*
X13939225Y-16649584D02*
X13939225Y-16449584D01*
X13939225Y-16640060D02*
X13920177Y-16649584D01*
X13920177Y-16649584D02*
X13882082Y-16649584D01*
X13882082Y-16649584D02*
X13863034Y-16640060D01*
X13863034Y-16640060D02*
X13853511Y-16630536D01*
X13853511Y-16630536D02*
X13843987Y-16611488D01*
X13843987Y-16611488D02*
X13843987Y-16554346D01*
X13843987Y-16554346D02*
X13853511Y-16535298D01*
X13853511Y-16535298D02*
X13863034Y-16525774D01*
X13863034Y-16525774D02*
X13882082Y-16516250D01*
X13882082Y-16516250D02*
X13920177Y-16516250D01*
X13920177Y-16516250D02*
X13939225Y-16525774D01*
X14015415Y-16725774D02*
X14024939Y-16716250D01*
X14024939Y-16716250D02*
X14043987Y-16687679D01*
X14043987Y-16687679D02*
X14053511Y-16668631D01*
X14053511Y-16668631D02*
X14063034Y-16640060D01*
X14063034Y-16640060D02*
X14072558Y-16592441D01*
X14072558Y-16592441D02*
X14072558Y-16554346D01*
X14072558Y-16554346D02*
X14063034Y-16506727D01*
X14063034Y-16506727D02*
X14053511Y-16478155D01*
X14053511Y-16478155D02*
X14043987Y-16459108D01*
X14043987Y-16459108D02*
X14024939Y-16430536D01*
X14024939Y-16430536D02*
X14015415Y-16421012D01*
M02*
