M48
; DRILL file {KiCad 7.0.7} date Sat Oct 14 23:25:38 2023
; FORMAT={-:-/ absolute / inch / decimal}
; #@! TF.CreationDate,2023-10-14T23:25:38+09:00
; #@! TF.GenerationSoftware,Kicad,Pcbnew,7.0.7
; #@! TF.FileFunction,Plated,1,2,PTH
FMAT,2
INCH
; #@! TA.AperFunction,Plated,PTH,ViaDrill
T1C0.0157
; #@! TA.AperFunction,Plated,PTH,ComponentDrill
T2C0.0315
; #@! TA.AperFunction,Plated,PTH,ComponentDrill
T3C0.0354
; #@! TA.AperFunction,Plated,PTH,ComponentDrill
T4C0.0394
; #@! TA.AperFunction,Plated,PTH,ComponentDrill
T5C0.0433
; #@! TA.AperFunction,Plated,PTH,ComponentDrill
T6C0.0472
; #@! TA.AperFunction,Plated,PTH,ComponentDrill
T7C0.0709
; #@! TA.AperFunction,Plated,PTH,ComponentDrill
T8C0.1181
%
G90
G05
T1
X4.605Y-3.21
X4.66Y-3.21
X4.715Y-3.21
X4.77Y-3.21
X4.825Y-3.21
X4.88Y-3.21
X4.935Y-3.21
X4.99Y-3.21
X5.2Y-3.21
X5.2Y-3.645
X5.36Y-5.035
X5.48Y-5.035
X5.6Y-5.035
X5.72Y-5.035
X5.84Y-5.035
X6.34Y-2.855
X7.245Y-3.68
X7.245Y-5.665
T2
X3.31Y-5.42
X3.31Y-5.82
X3.3842Y-5.92
X3.3842Y-6.02
X3.3842Y-6.12
X3.43Y-5.42
X3.43Y-5.82
X3.55Y-5.42
X3.55Y-5.82
X3.6342Y-5.92
X3.6342Y-6.02
X3.6342Y-6.12
X3.67Y-5.42
X3.67Y-5.82
X3.79Y-5.42
X3.79Y-5.82
X3.8842Y-5.92
X3.8842Y-6.02
X3.8842Y-6.12
X3.91Y-5.42
X3.91Y-5.82
X4.03Y-5.42
X4.03Y-5.82
X4.1342Y-5.92
X4.1342Y-6.02
X4.1342Y-6.12
X4.15Y-5.42
X4.15Y-5.82
X4.27Y-5.42
X4.27Y-5.82
X4.3821Y-5.92
X4.3821Y-6.02
X4.3821Y-6.12
X4.39Y-5.42
X4.39Y-5.82
X4.51Y-5.42
X4.51Y-5.82
X4.63Y-5.42
X4.63Y-5.82
X4.6321Y-5.92
X4.6321Y-6.02
X4.6321Y-6.12
X4.75Y-5.42
X4.75Y-5.82
X4.87Y-5.42
X4.87Y-5.82
X4.8842Y-5.92
X4.8842Y-6.02
X4.8842Y-6.12
X4.99Y-5.42
X4.99Y-5.82
X5.11Y-5.42
X5.11Y-5.82
X5.1383Y-5.92
X5.1383Y-6.02
X5.1383Y-6.12
X5.3Y-5.105
X5.3Y-5.505
X5.4194Y-5.105
X5.4194Y-5.505
X5.47Y-5.74
X5.47Y-5.86
X5.47Y-5.98
X5.47Y-6.1
X5.54Y-5.105
X5.54Y-5.505
X5.66Y-5.105
X5.66Y-5.505
X5.78Y-5.105
X5.78Y-5.505
X5.87Y-5.74
X5.87Y-5.86
X5.87Y-5.98
X5.87Y-6.1
X5.9Y-5.105
X5.9Y-5.505
X5.94Y-2.99
X6.04Y-5.72
X6.04Y-6.12
X6.1338Y-3.225
X6.1338Y-3.345
X6.16Y-5.72
X6.16Y-6.12
X6.34Y-2.99
X6.3546Y-5.8104
X6.3546Y-6.1104
X6.43Y-2.99
X6.4546Y-5.8104
X6.4546Y-6.1104
X6.5338Y-3.225
X6.5338Y-3.345
X6.5546Y-5.8104
X6.5546Y-6.1104
X6.6546Y-5.8104
X6.6546Y-6.1104
X6.83Y-2.99
X6.8346Y-5.8104
X6.8346Y-6.1104
X6.9346Y-5.8104
X6.9346Y-6.1104
X7.0346Y-5.8104
X7.0346Y-6.1104
X7.068Y-2.344
X7.068Y-2.744
X7.068Y-2.834
X7.068Y-3.234
X7.1346Y-5.8104
X7.1346Y-6.1104
X7.188Y-2.344
X7.188Y-2.744
X7.188Y-2.834
X7.188Y-3.234
X7.308Y-2.344
X7.308Y-2.744
X7.308Y-2.834
X7.308Y-3.234
X7.3839Y-3.5534
X7.428Y-2.344
X7.428Y-2.744
X7.428Y-2.834
X7.428Y-3.234
X7.4626Y-3.5534
X7.665Y-3.5034
X7.665Y-3.6234
X8.065Y-3.5034
X8.065Y-3.6234
T3
X3.19Y-5.2
X3.29Y-5.2
X3.4892Y-5.2
X3.5892Y-5.2
X3.7884Y-5.2
X3.8884Y-5.2
X4.0876Y-5.2
X4.1876Y-5.2
X4.3869Y-5.2
X4.4869Y-5.2
X4.6861Y-5.2
X4.7861Y-5.2
X7.385Y-3.9034
X7.385Y-4.0034
X7.385Y-4.1034
X7.385Y-4.2034
X7.385Y-4.3034
X7.385Y-4.4034
X7.385Y-4.5034
X7.385Y-4.6034
X7.385Y-4.7034
X7.385Y-4.8034
X7.385Y-4.9034
X7.385Y-5.0034
X7.385Y-5.1034
X7.385Y-5.2034
X7.385Y-5.3034
X7.385Y-5.4034
X7.385Y-5.5034
X7.385Y-5.6034
X7.385Y-5.7034
X8.285Y-3.9034
X8.285Y-4.0034
X8.285Y-4.1034
X8.285Y-4.2034
X8.285Y-4.3034
X8.285Y-4.4034
X8.285Y-4.5034
X8.285Y-4.6034
X8.285Y-4.7034
X8.285Y-4.8034
X8.285Y-4.9034
X8.285Y-5.0034
X8.285Y-5.1034
X8.285Y-5.2034
X8.285Y-5.3034
X8.285Y-5.4034
X8.285Y-5.5034
X8.285Y-5.6034
X8.285Y-5.7034
T4
X3.04Y-2.145
X3.04Y-2.245
X3.04Y-2.345
X3.04Y-2.445
X3.04Y-2.545
X3.04Y-2.645
X3.04Y-2.745
X3.04Y-2.845
X3.04Y-2.945
X3.04Y-3.045
X3.04Y-3.145
X3.04Y-3.245
X3.04Y-3.345
X3.04Y-3.445
X3.04Y-3.545
X3.04Y-3.645
X3.04Y-3.745
X3.04Y-3.845
X3.04Y-3.945
X3.04Y-4.045
X3.04Y-4.145
X3.04Y-4.245
X3.04Y-4.345
X3.04Y-4.445
X3.14Y-2.145
X3.14Y-2.245
X3.14Y-2.345
X3.14Y-2.445
X3.14Y-2.545
X3.14Y-2.645
X3.14Y-2.745
X3.14Y-2.845
X3.14Y-2.945
X3.14Y-3.045
X3.14Y-3.145
X3.14Y-3.245
X3.14Y-3.345
X3.14Y-3.445
X3.14Y-3.545
X3.14Y-3.645
X3.14Y-3.745
X3.14Y-3.845
X3.14Y-3.945
X3.14Y-4.045
X3.14Y-4.145
X3.14Y-4.245
X3.14Y-4.345
X3.14Y-4.445
X3.94Y-2.2148
X4.04Y-2.2148
X4.14Y-2.2148
X4.24Y-2.2148
X5.6401Y-2.145
X5.6401Y-2.245
X5.6401Y-2.345
X5.6401Y-2.445
X5.6401Y-2.545
X5.6401Y-2.645
X5.6401Y-2.745
X5.6401Y-2.845
X5.6401Y-2.945
X5.6401Y-3.045
X5.6401Y-3.145
X5.6401Y-3.245
X5.6401Y-3.345
X5.6401Y-3.445
X5.6401Y-3.545
X5.6401Y-3.645
X5.6401Y-3.745
X5.6401Y-3.845
X5.6401Y-3.945
X5.6401Y-4.045
X5.6401Y-4.145
X5.6401Y-4.245
X5.6401Y-4.345
X5.6401Y-4.445
X5.7401Y-2.145
X5.7401Y-2.245
X5.7401Y-2.345
X5.7401Y-2.445
X5.7401Y-2.545
X5.7401Y-2.645
X5.7401Y-2.745
X5.7401Y-2.845
X5.7401Y-2.945
X5.7401Y-3.045
X5.7401Y-3.145
X5.7401Y-3.245
X5.7401Y-3.345
X5.7401Y-3.445
X5.7401Y-3.545
X5.7401Y-3.645
X5.7401Y-3.745
X5.7401Y-3.845
X5.7401Y-3.945
X5.7401Y-4.045
X5.7401Y-4.145
X5.7401Y-4.245
X5.7401Y-4.345
X5.7401Y-4.445
X8.295Y-3.405
X8.295Y-3.505
X8.295Y-3.605
T5
X5.99Y-2.2775
X5.99Y-2.3775
X5.99Y-2.7082
X5.99Y-2.8082
X6.5138Y-4.168
X6.6138Y-4.168
X6.7138Y-4.168
X6.7168Y-2.2775
X6.7168Y-2.3775
X6.7168Y-2.7082
X6.7168Y-2.8082
X6.8138Y-4.168
T6
X6.1329Y-3.495
X6.1329Y-3.595
X6.1329Y-3.695
X6.1329Y-3.795
X6.1329Y-3.895
X7.1171Y-3.495
X7.1171Y-3.595
X7.1171Y-3.695
X7.1171Y-3.795
X7.1171Y-3.895
X7.87Y-2.6741
X7.87Y-2.7741
X7.87Y-2.8741
X7.87Y-2.9741
X7.87Y-3.0741
X7.87Y-3.1741
T7
X6.1865Y-1.86
X6.1865Y-2.0765
X6.3518Y-1.86
X6.3518Y-2.0765
X6.5172Y-1.86
X6.5172Y-2.0765
X6.6825Y-1.86
X6.6825Y-2.0765
X6.8479Y-1.86
X6.8479Y-2.0765
X7.0132Y-1.86
X7.0132Y-2.0765
X7.1786Y-1.86
X7.1786Y-2.0765
X7.3439Y-1.86
X7.3439Y-2.0765
X7.5093Y-1.86
X7.5093Y-2.0765
X7.6746Y-1.86
X7.6746Y-2.0765
X7.84Y-1.86
X7.84Y-2.0765
X8.0054Y-1.86
X8.0054Y-2.0765
T8
X3.1Y-1.405
X3.1Y-6.025
X8.28Y-1.405
X8.28Y-6.025
T4
G00X8.0739Y-2.305
M15
G01X8.1133Y-2.305
M16
G05
G00X8.0739Y-2.4034
M15
G01X8.1133Y-2.4034
M16
G05
G00X8.0739Y-2.5019
M15
G01X8.1133Y-2.5019
M16
G05
G00X8.2353Y-2.305
M15
G01X8.2747Y-2.305
M16
G05
G00X8.2353Y-2.4034
M15
G01X8.2747Y-2.4034
M16
G05
G00X8.2353Y-2.5019
M15
G01X8.2747Y-2.5019
M16
G05
T0
M30
