%TF.GenerationSoftware,KiCad,Pcbnew,7.0.7*%
%TF.CreationDate,2023-09-25T15:17:22+09:00*%
%TF.ProjectId,TMA-1,544d412d-312e-46b6-9963-61645f706362,rev?*%
%TF.SameCoordinates,Original*%
%TF.FileFunction,Legend,Bot*%
%TF.FilePolarity,Positive*%
%FSLAX46Y46*%
G04 Gerber Fmt 4.6, Leading zero omitted, Abs format (unit mm)*
G04 Created by KiCad (PCBNEW 7.0.7) date 2023-09-25 15:17:22*
%MOMM*%
%LPD*%
G01*
G04 APERTURE LIST*
%ADD10C,0.150000*%
G04 APERTURE END LIST*
D10*
X211546839Y-86309200D02*
X211403982Y-86356819D01*
X211403982Y-86356819D02*
X211165887Y-86356819D01*
X211165887Y-86356819D02*
X211070649Y-86309200D01*
X211070649Y-86309200D02*
X211023030Y-86261580D01*
X211023030Y-86261580D02*
X210975411Y-86166342D01*
X210975411Y-86166342D02*
X210975411Y-86071104D01*
X210975411Y-86071104D02*
X211023030Y-85975866D01*
X211023030Y-85975866D02*
X211070649Y-85928247D01*
X211070649Y-85928247D02*
X211165887Y-85880628D01*
X211165887Y-85880628D02*
X211356363Y-85833009D01*
X211356363Y-85833009D02*
X211451601Y-85785390D01*
X211451601Y-85785390D02*
X211499220Y-85737771D01*
X211499220Y-85737771D02*
X211546839Y-85642533D01*
X211546839Y-85642533D02*
X211546839Y-85547295D01*
X211546839Y-85547295D02*
X211499220Y-85452057D01*
X211499220Y-85452057D02*
X211451601Y-85404438D01*
X211451601Y-85404438D02*
X211356363Y-85356819D01*
X211356363Y-85356819D02*
X211118268Y-85356819D01*
X211118268Y-85356819D02*
X210975411Y-85404438D01*
X209975411Y-86261580D02*
X210023030Y-86309200D01*
X210023030Y-86309200D02*
X210165887Y-86356819D01*
X210165887Y-86356819D02*
X210261125Y-86356819D01*
X210261125Y-86356819D02*
X210403982Y-86309200D01*
X210403982Y-86309200D02*
X210499220Y-86213961D01*
X210499220Y-86213961D02*
X210546839Y-86118723D01*
X210546839Y-86118723D02*
X210594458Y-85928247D01*
X210594458Y-85928247D02*
X210594458Y-85785390D01*
X210594458Y-85785390D02*
X210546839Y-85594914D01*
X210546839Y-85594914D02*
X210499220Y-85499676D01*
X210499220Y-85499676D02*
X210403982Y-85404438D01*
X210403982Y-85404438D02*
X210261125Y-85356819D01*
X210261125Y-85356819D02*
X210165887Y-85356819D01*
X210165887Y-85356819D02*
X210023030Y-85404438D01*
X210023030Y-85404438D02*
X209975411Y-85452057D01*
X209070649Y-86356819D02*
X209546839Y-86356819D01*
X209546839Y-86356819D02*
X209546839Y-85356819D01*
X211546839Y-93294200D02*
X211403982Y-93341819D01*
X211403982Y-93341819D02*
X211165887Y-93341819D01*
X211165887Y-93341819D02*
X211070649Y-93294200D01*
X211070649Y-93294200D02*
X211023030Y-93246580D01*
X211023030Y-93246580D02*
X210975411Y-93151342D01*
X210975411Y-93151342D02*
X210975411Y-93056104D01*
X210975411Y-93056104D02*
X211023030Y-92960866D01*
X211023030Y-92960866D02*
X211070649Y-92913247D01*
X211070649Y-92913247D02*
X211165887Y-92865628D01*
X211165887Y-92865628D02*
X211356363Y-92818009D01*
X211356363Y-92818009D02*
X211451601Y-92770390D01*
X211451601Y-92770390D02*
X211499220Y-92722771D01*
X211499220Y-92722771D02*
X211546839Y-92627533D01*
X211546839Y-92627533D02*
X211546839Y-92532295D01*
X211546839Y-92532295D02*
X211499220Y-92437057D01*
X211499220Y-92437057D02*
X211451601Y-92389438D01*
X211451601Y-92389438D02*
X211356363Y-92341819D01*
X211356363Y-92341819D02*
X211118268Y-92341819D01*
X211118268Y-92341819D02*
X210975411Y-92389438D01*
X210546839Y-93341819D02*
X210546839Y-92341819D01*
X210546839Y-92341819D02*
X210308744Y-92341819D01*
X210308744Y-92341819D02*
X210165887Y-92389438D01*
X210165887Y-92389438D02*
X210070649Y-92484676D01*
X210070649Y-92484676D02*
X210023030Y-92579914D01*
X210023030Y-92579914D02*
X209975411Y-92770390D01*
X209975411Y-92770390D02*
X209975411Y-92913247D01*
X209975411Y-92913247D02*
X210023030Y-93103723D01*
X210023030Y-93103723D02*
X210070649Y-93198961D01*
X210070649Y-93198961D02*
X210165887Y-93294200D01*
X210165887Y-93294200D02*
X210308744Y-93341819D01*
X210308744Y-93341819D02*
X210546839Y-93341819D01*
X209594458Y-93056104D02*
X209118268Y-93056104D01*
X209689696Y-93341819D02*
X209356363Y-92341819D01*
X209356363Y-92341819D02*
X209023030Y-93341819D01*
X157889411Y-55559438D02*
X157984649Y-55511819D01*
X157984649Y-55511819D02*
X158127506Y-55511819D01*
X158127506Y-55511819D02*
X158270363Y-55559438D01*
X158270363Y-55559438D02*
X158365601Y-55654676D01*
X158365601Y-55654676D02*
X158413220Y-55749914D01*
X158413220Y-55749914D02*
X158460839Y-55940390D01*
X158460839Y-55940390D02*
X158460839Y-56083247D01*
X158460839Y-56083247D02*
X158413220Y-56273723D01*
X158413220Y-56273723D02*
X158365601Y-56368961D01*
X158365601Y-56368961D02*
X158270363Y-56464200D01*
X158270363Y-56464200D02*
X158127506Y-56511819D01*
X158127506Y-56511819D02*
X158032268Y-56511819D01*
X158032268Y-56511819D02*
X157889411Y-56464200D01*
X157889411Y-56464200D02*
X157841792Y-56416580D01*
X157841792Y-56416580D02*
X157841792Y-56083247D01*
X157841792Y-56083247D02*
X158032268Y-56083247D01*
X157413220Y-56511819D02*
X157413220Y-55511819D01*
X157413220Y-55511819D02*
X156841792Y-56511819D01*
X156841792Y-56511819D02*
X156841792Y-55511819D01*
X156365601Y-56511819D02*
X156365601Y-55511819D01*
X156365601Y-55511819D02*
X156127506Y-55511819D01*
X156127506Y-55511819D02*
X155984649Y-55559438D01*
X155984649Y-55559438D02*
X155889411Y-55654676D01*
X155889411Y-55654676D02*
X155841792Y-55749914D01*
X155841792Y-55749914D02*
X155794173Y-55940390D01*
X155794173Y-55940390D02*
X155794173Y-56083247D01*
X155794173Y-56083247D02*
X155841792Y-56273723D01*
X155841792Y-56273723D02*
X155889411Y-56368961D01*
X155889411Y-56368961D02*
X155984649Y-56464200D01*
X155984649Y-56464200D02*
X156127506Y-56511819D01*
X156127506Y-56511819D02*
X156365601Y-56511819D01*
X204450792Y-56416580D02*
X204498411Y-56464200D01*
X204498411Y-56464200D02*
X204641268Y-56511819D01*
X204641268Y-56511819D02*
X204736506Y-56511819D01*
X204736506Y-56511819D02*
X204879363Y-56464200D01*
X204879363Y-56464200D02*
X204974601Y-56368961D01*
X204974601Y-56368961D02*
X205022220Y-56273723D01*
X205022220Y-56273723D02*
X205069839Y-56083247D01*
X205069839Y-56083247D02*
X205069839Y-55940390D01*
X205069839Y-55940390D02*
X205022220Y-55749914D01*
X205022220Y-55749914D02*
X204974601Y-55654676D01*
X204974601Y-55654676D02*
X204879363Y-55559438D01*
X204879363Y-55559438D02*
X204736506Y-55511819D01*
X204736506Y-55511819D02*
X204641268Y-55511819D01*
X204641268Y-55511819D02*
X204498411Y-55559438D01*
X204498411Y-55559438D02*
X204450792Y-55607057D01*
X204069839Y-56226104D02*
X203593649Y-56226104D01*
X204165077Y-56511819D02*
X203831744Y-55511819D01*
X203831744Y-55511819D02*
X203498411Y-56511819D01*
X203165077Y-56511819D02*
X203165077Y-55511819D01*
X203165077Y-55511819D02*
X202593649Y-56511819D01*
X202593649Y-56511819D02*
X202593649Y-55511819D01*
X201641268Y-56511819D02*
X202117458Y-56511819D01*
X202117458Y-56511819D02*
X202117458Y-55511819D01*
X188004220Y-56511819D02*
X188004220Y-55511819D01*
X188004220Y-55511819D02*
X187623268Y-55511819D01*
X187623268Y-55511819D02*
X187528030Y-55559438D01*
X187528030Y-55559438D02*
X187480411Y-55607057D01*
X187480411Y-55607057D02*
X187432792Y-55702295D01*
X187432792Y-55702295D02*
X187432792Y-55845152D01*
X187432792Y-55845152D02*
X187480411Y-55940390D01*
X187480411Y-55940390D02*
X187528030Y-55988009D01*
X187528030Y-55988009D02*
X187623268Y-56035628D01*
X187623268Y-56035628D02*
X188004220Y-56035628D01*
X187004220Y-56511819D02*
X187004220Y-55511819D01*
X186528030Y-56511819D02*
X186528030Y-55511819D01*
X186528030Y-55511819D02*
X185956602Y-56511819D01*
X185956602Y-56511819D02*
X185956602Y-55511819D01*
X184956602Y-56511819D02*
X185528030Y-56511819D01*
X185242316Y-56511819D02*
X185242316Y-55511819D01*
X185242316Y-55511819D02*
X185337554Y-55654676D01*
X185337554Y-55654676D02*
X185432792Y-55749914D01*
X185432792Y-55749914D02*
X185528030Y-55797533D01*
X175558220Y-56511819D02*
X175558220Y-55511819D01*
X175558220Y-55511819D02*
X175320125Y-55511819D01*
X175320125Y-55511819D02*
X175177268Y-55559438D01*
X175177268Y-55559438D02*
X175082030Y-55654676D01*
X175082030Y-55654676D02*
X175034411Y-55749914D01*
X175034411Y-55749914D02*
X174986792Y-55940390D01*
X174986792Y-55940390D02*
X174986792Y-56083247D01*
X174986792Y-56083247D02*
X175034411Y-56273723D01*
X175034411Y-56273723D02*
X175082030Y-56368961D01*
X175082030Y-56368961D02*
X175177268Y-56464200D01*
X175177268Y-56464200D02*
X175320125Y-56511819D01*
X175320125Y-56511819D02*
X175558220Y-56511819D01*
X174558220Y-56511819D02*
X174558220Y-55511819D01*
X174082030Y-56511819D02*
X174082030Y-55511819D01*
X174082030Y-55511819D02*
X173510602Y-56511819D01*
X173510602Y-56511819D02*
X173510602Y-55511819D01*
X173129649Y-55511819D02*
X172462983Y-55511819D01*
X172462983Y-55511819D02*
X172891554Y-56511819D01*
X183860839Y-56226104D02*
X183384649Y-56226104D01*
X183956077Y-56511819D02*
X183622744Y-55511819D01*
X183622744Y-55511819D02*
X183289411Y-56511819D01*
X182956077Y-56511819D02*
X182956077Y-55511819D01*
X182479887Y-56511819D02*
X182479887Y-55511819D01*
X182479887Y-55511819D02*
X181908459Y-56511819D01*
X181908459Y-56511819D02*
X181908459Y-55511819D01*
X181527506Y-55511819D02*
X180908459Y-55511819D01*
X180908459Y-55511819D02*
X181241792Y-55892771D01*
X181241792Y-55892771D02*
X181098935Y-55892771D01*
X181098935Y-55892771D02*
X181003697Y-55940390D01*
X181003697Y-55940390D02*
X180956078Y-55988009D01*
X180956078Y-55988009D02*
X180908459Y-56083247D01*
X180908459Y-56083247D02*
X180908459Y-56321342D01*
X180908459Y-56321342D02*
X180956078Y-56416580D01*
X180956078Y-56416580D02*
X181003697Y-56464200D01*
X181003697Y-56464200D02*
X181098935Y-56511819D01*
X181098935Y-56511819D02*
X181384649Y-56511819D01*
X181384649Y-56511819D02*
X181479887Y-56464200D01*
X181479887Y-56464200D02*
X181527506Y-56416580D01*
X162731220Y-56511819D02*
X162731220Y-55511819D01*
X162731220Y-55511819D02*
X162493125Y-55511819D01*
X162493125Y-55511819D02*
X162350268Y-55559438D01*
X162350268Y-55559438D02*
X162255030Y-55654676D01*
X162255030Y-55654676D02*
X162207411Y-55749914D01*
X162207411Y-55749914D02*
X162159792Y-55940390D01*
X162159792Y-55940390D02*
X162159792Y-56083247D01*
X162159792Y-56083247D02*
X162207411Y-56273723D01*
X162207411Y-56273723D02*
X162255030Y-56368961D01*
X162255030Y-56368961D02*
X162350268Y-56464200D01*
X162350268Y-56464200D02*
X162493125Y-56511819D01*
X162493125Y-56511819D02*
X162731220Y-56511819D01*
X161731220Y-56511819D02*
X161731220Y-55511819D01*
X161255030Y-56511819D02*
X161255030Y-55511819D01*
X161255030Y-55511819D02*
X160683602Y-56511819D01*
X160683602Y-56511819D02*
X160683602Y-55511819D01*
X159683602Y-56511819D02*
X160255030Y-56511819D01*
X159969316Y-56511819D02*
X159969316Y-55511819D01*
X159969316Y-55511819D02*
X160064554Y-55654676D01*
X160064554Y-55654676D02*
X160159792Y-55749914D01*
X160159792Y-55749914D02*
X160255030Y-55797533D01*
X166922220Y-56511819D02*
X166922220Y-55511819D01*
X166922220Y-55511819D02*
X166684125Y-55511819D01*
X166684125Y-55511819D02*
X166541268Y-55559438D01*
X166541268Y-55559438D02*
X166446030Y-55654676D01*
X166446030Y-55654676D02*
X166398411Y-55749914D01*
X166398411Y-55749914D02*
X166350792Y-55940390D01*
X166350792Y-55940390D02*
X166350792Y-56083247D01*
X166350792Y-56083247D02*
X166398411Y-56273723D01*
X166398411Y-56273723D02*
X166446030Y-56368961D01*
X166446030Y-56368961D02*
X166541268Y-56464200D01*
X166541268Y-56464200D02*
X166684125Y-56511819D01*
X166684125Y-56511819D02*
X166922220Y-56511819D01*
X165922220Y-56511819D02*
X165922220Y-55511819D01*
X165446030Y-56511819D02*
X165446030Y-55511819D01*
X165446030Y-55511819D02*
X164874602Y-56511819D01*
X164874602Y-56511819D02*
X164874602Y-55511819D01*
X164493649Y-55511819D02*
X163874602Y-55511819D01*
X163874602Y-55511819D02*
X164207935Y-55892771D01*
X164207935Y-55892771D02*
X164065078Y-55892771D01*
X164065078Y-55892771D02*
X163969840Y-55940390D01*
X163969840Y-55940390D02*
X163922221Y-55988009D01*
X163922221Y-55988009D02*
X163874602Y-56083247D01*
X163874602Y-56083247D02*
X163874602Y-56321342D01*
X163874602Y-56321342D02*
X163922221Y-56416580D01*
X163922221Y-56416580D02*
X163969840Y-56464200D01*
X163969840Y-56464200D02*
X164065078Y-56511819D01*
X164065078Y-56511819D02*
X164350792Y-56511819D01*
X164350792Y-56511819D02*
X164446030Y-56464200D01*
X164446030Y-56464200D02*
X164493649Y-56416580D01*
X179669839Y-56226104D02*
X179193649Y-56226104D01*
X179765077Y-56511819D02*
X179431744Y-55511819D01*
X179431744Y-55511819D02*
X179098411Y-56511819D01*
X178765077Y-56511819D02*
X178765077Y-55511819D01*
X178288887Y-56511819D02*
X178288887Y-55511819D01*
X178288887Y-55511819D02*
X177717459Y-56511819D01*
X177717459Y-56511819D02*
X177717459Y-55511819D01*
X176717459Y-56511819D02*
X177288887Y-56511819D01*
X177003173Y-56511819D02*
X177003173Y-55511819D01*
X177003173Y-55511819D02*
X177098411Y-55654676D01*
X177098411Y-55654676D02*
X177193649Y-55749914D01*
X177193649Y-55749914D02*
X177288887Y-55797533D01*
X171240220Y-56511819D02*
X171240220Y-55511819D01*
X171240220Y-55511819D02*
X171002125Y-55511819D01*
X171002125Y-55511819D02*
X170859268Y-55559438D01*
X170859268Y-55559438D02*
X170764030Y-55654676D01*
X170764030Y-55654676D02*
X170716411Y-55749914D01*
X170716411Y-55749914D02*
X170668792Y-55940390D01*
X170668792Y-55940390D02*
X170668792Y-56083247D01*
X170668792Y-56083247D02*
X170716411Y-56273723D01*
X170716411Y-56273723D02*
X170764030Y-56368961D01*
X170764030Y-56368961D02*
X170859268Y-56464200D01*
X170859268Y-56464200D02*
X171002125Y-56511819D01*
X171002125Y-56511819D02*
X171240220Y-56511819D01*
X170240220Y-56511819D02*
X170240220Y-55511819D01*
X169764030Y-56511819D02*
X169764030Y-55511819D01*
X169764030Y-55511819D02*
X169192602Y-56511819D01*
X169192602Y-56511819D02*
X169192602Y-55511819D01*
X168240221Y-55511819D02*
X168716411Y-55511819D01*
X168716411Y-55511819D02*
X168764030Y-55988009D01*
X168764030Y-55988009D02*
X168716411Y-55940390D01*
X168716411Y-55940390D02*
X168621173Y-55892771D01*
X168621173Y-55892771D02*
X168383078Y-55892771D01*
X168383078Y-55892771D02*
X168287840Y-55940390D01*
X168287840Y-55940390D02*
X168240221Y-55988009D01*
X168240221Y-55988009D02*
X168192602Y-56083247D01*
X168192602Y-56083247D02*
X168192602Y-56321342D01*
X168192602Y-56321342D02*
X168240221Y-56416580D01*
X168240221Y-56416580D02*
X168287840Y-56464200D01*
X168287840Y-56464200D02*
X168383078Y-56511819D01*
X168383078Y-56511819D02*
X168621173Y-56511819D01*
X168621173Y-56511819D02*
X168716411Y-56464200D01*
X168716411Y-56464200D02*
X168764030Y-56416580D01*
X192195220Y-56511819D02*
X192195220Y-55511819D01*
X192195220Y-55511819D02*
X191814268Y-55511819D01*
X191814268Y-55511819D02*
X191719030Y-55559438D01*
X191719030Y-55559438D02*
X191671411Y-55607057D01*
X191671411Y-55607057D02*
X191623792Y-55702295D01*
X191623792Y-55702295D02*
X191623792Y-55845152D01*
X191623792Y-55845152D02*
X191671411Y-55940390D01*
X191671411Y-55940390D02*
X191719030Y-55988009D01*
X191719030Y-55988009D02*
X191814268Y-56035628D01*
X191814268Y-56035628D02*
X192195220Y-56035628D01*
X191195220Y-56511819D02*
X191195220Y-55511819D01*
X190719030Y-56511819D02*
X190719030Y-55511819D01*
X190719030Y-55511819D02*
X190147602Y-56511819D01*
X190147602Y-56511819D02*
X190147602Y-55511819D01*
X189766649Y-55511819D02*
X189147602Y-55511819D01*
X189147602Y-55511819D02*
X189480935Y-55892771D01*
X189480935Y-55892771D02*
X189338078Y-55892771D01*
X189338078Y-55892771D02*
X189242840Y-55940390D01*
X189242840Y-55940390D02*
X189195221Y-55988009D01*
X189195221Y-55988009D02*
X189147602Y-56083247D01*
X189147602Y-56083247D02*
X189147602Y-56321342D01*
X189147602Y-56321342D02*
X189195221Y-56416580D01*
X189195221Y-56416580D02*
X189242840Y-56464200D01*
X189242840Y-56464200D02*
X189338078Y-56511819D01*
X189338078Y-56511819D02*
X189623792Y-56511819D01*
X189623792Y-56511819D02*
X189719030Y-56464200D01*
X189719030Y-56464200D02*
X189766649Y-56416580D01*
X196132220Y-56511819D02*
X196132220Y-55511819D01*
X196132220Y-55511819D02*
X195894125Y-55511819D01*
X195894125Y-55511819D02*
X195751268Y-55559438D01*
X195751268Y-55559438D02*
X195656030Y-55654676D01*
X195656030Y-55654676D02*
X195608411Y-55749914D01*
X195608411Y-55749914D02*
X195560792Y-55940390D01*
X195560792Y-55940390D02*
X195560792Y-56083247D01*
X195560792Y-56083247D02*
X195608411Y-56273723D01*
X195608411Y-56273723D02*
X195656030Y-56368961D01*
X195656030Y-56368961D02*
X195751268Y-56464200D01*
X195751268Y-56464200D02*
X195894125Y-56511819D01*
X195894125Y-56511819D02*
X196132220Y-56511819D01*
X194560792Y-56511819D02*
X194894125Y-56035628D01*
X195132220Y-56511819D02*
X195132220Y-55511819D01*
X195132220Y-55511819D02*
X194751268Y-55511819D01*
X194751268Y-55511819D02*
X194656030Y-55559438D01*
X194656030Y-55559438D02*
X194608411Y-55607057D01*
X194608411Y-55607057D02*
X194560792Y-55702295D01*
X194560792Y-55702295D02*
X194560792Y-55845152D01*
X194560792Y-55845152D02*
X194608411Y-55940390D01*
X194608411Y-55940390D02*
X194656030Y-55988009D01*
X194656030Y-55988009D02*
X194751268Y-56035628D01*
X194751268Y-56035628D02*
X195132220Y-56035628D01*
X194227458Y-55511819D02*
X193560792Y-56511819D01*
X193560792Y-55511819D02*
X194227458Y-56511819D01*
X199720030Y-56511819D02*
X200196220Y-56511819D01*
X200196220Y-56511819D02*
X200196220Y-55511819D01*
X198815268Y-56511819D02*
X199148601Y-56035628D01*
X199386696Y-56511819D02*
X199386696Y-55511819D01*
X199386696Y-55511819D02*
X199005744Y-55511819D01*
X199005744Y-55511819D02*
X198910506Y-55559438D01*
X198910506Y-55559438D02*
X198862887Y-55607057D01*
X198862887Y-55607057D02*
X198815268Y-55702295D01*
X198815268Y-55702295D02*
X198815268Y-55845152D01*
X198815268Y-55845152D02*
X198862887Y-55940390D01*
X198862887Y-55940390D02*
X198910506Y-55988009D01*
X198910506Y-55988009D02*
X199005744Y-56035628D01*
X199005744Y-56035628D02*
X199386696Y-56035628D01*
X198481934Y-55511819D02*
X197815268Y-56511819D01*
X197815268Y-55511819D02*
X198481934Y-56511819D01*
X204450792Y-44351580D02*
X204498411Y-44399200D01*
X204498411Y-44399200D02*
X204641268Y-44446819D01*
X204641268Y-44446819D02*
X204736506Y-44446819D01*
X204736506Y-44446819D02*
X204879363Y-44399200D01*
X204879363Y-44399200D02*
X204974601Y-44303961D01*
X204974601Y-44303961D02*
X205022220Y-44208723D01*
X205022220Y-44208723D02*
X205069839Y-44018247D01*
X205069839Y-44018247D02*
X205069839Y-43875390D01*
X205069839Y-43875390D02*
X205022220Y-43684914D01*
X205022220Y-43684914D02*
X204974601Y-43589676D01*
X204974601Y-43589676D02*
X204879363Y-43494438D01*
X204879363Y-43494438D02*
X204736506Y-43446819D01*
X204736506Y-43446819D02*
X204641268Y-43446819D01*
X204641268Y-43446819D02*
X204498411Y-43494438D01*
X204498411Y-43494438D02*
X204450792Y-43542057D01*
X204069839Y-44161104D02*
X203593649Y-44161104D01*
X204165077Y-44446819D02*
X203831744Y-43446819D01*
X203831744Y-43446819D02*
X203498411Y-44446819D01*
X203165077Y-44446819D02*
X203165077Y-43446819D01*
X203165077Y-43446819D02*
X202593649Y-44446819D01*
X202593649Y-44446819D02*
X202593649Y-43446819D01*
X202117458Y-44446819D02*
X202117458Y-43446819D01*
X202117458Y-43923009D02*
X201546030Y-43923009D01*
X201546030Y-44446819D02*
X201546030Y-43446819D01*
X199593030Y-44446819D02*
X200069220Y-44446819D01*
X200069220Y-44446819D02*
X200069220Y-43446819D01*
X199402553Y-43446819D02*
X198831125Y-43446819D01*
X199116839Y-44446819D02*
X199116839Y-43446819D01*
X198593029Y-43446819D02*
X197926363Y-44446819D01*
X197926363Y-43446819D02*
X198593029Y-44446819D01*
X196132220Y-44446819D02*
X196132220Y-43446819D01*
X196132220Y-43446819D02*
X195894125Y-43446819D01*
X195894125Y-43446819D02*
X195751268Y-43494438D01*
X195751268Y-43494438D02*
X195656030Y-43589676D01*
X195656030Y-43589676D02*
X195608411Y-43684914D01*
X195608411Y-43684914D02*
X195560792Y-43875390D01*
X195560792Y-43875390D02*
X195560792Y-44018247D01*
X195560792Y-44018247D02*
X195608411Y-44208723D01*
X195608411Y-44208723D02*
X195656030Y-44303961D01*
X195656030Y-44303961D02*
X195751268Y-44399200D01*
X195751268Y-44399200D02*
X195894125Y-44446819D01*
X195894125Y-44446819D02*
X196132220Y-44446819D01*
X195275077Y-43446819D02*
X194703649Y-43446819D01*
X194989363Y-44446819D02*
X194989363Y-43446819D01*
X194465553Y-43446819D02*
X193798887Y-44446819D01*
X193798887Y-43446819D02*
X194465553Y-44446819D01*
X192195220Y-44446819D02*
X192195220Y-43446819D01*
X192195220Y-43446819D02*
X191814268Y-43446819D01*
X191814268Y-43446819D02*
X191719030Y-43494438D01*
X191719030Y-43494438D02*
X191671411Y-43542057D01*
X191671411Y-43542057D02*
X191623792Y-43637295D01*
X191623792Y-43637295D02*
X191623792Y-43780152D01*
X191623792Y-43780152D02*
X191671411Y-43875390D01*
X191671411Y-43875390D02*
X191719030Y-43923009D01*
X191719030Y-43923009D02*
X191814268Y-43970628D01*
X191814268Y-43970628D02*
X192195220Y-43970628D01*
X191195220Y-44446819D02*
X191195220Y-43446819D01*
X190719030Y-44446819D02*
X190719030Y-43446819D01*
X190719030Y-43446819D02*
X190147602Y-44446819D01*
X190147602Y-44446819D02*
X190147602Y-43446819D01*
X189719030Y-43542057D02*
X189671411Y-43494438D01*
X189671411Y-43494438D02*
X189576173Y-43446819D01*
X189576173Y-43446819D02*
X189338078Y-43446819D01*
X189338078Y-43446819D02*
X189242840Y-43494438D01*
X189242840Y-43494438D02*
X189195221Y-43542057D01*
X189195221Y-43542057D02*
X189147602Y-43637295D01*
X189147602Y-43637295D02*
X189147602Y-43732533D01*
X189147602Y-43732533D02*
X189195221Y-43875390D01*
X189195221Y-43875390D02*
X189766649Y-44446819D01*
X189766649Y-44446819D02*
X189147602Y-44446819D01*
X188004220Y-44446819D02*
X188004220Y-43446819D01*
X188004220Y-43446819D02*
X187623268Y-43446819D01*
X187623268Y-43446819D02*
X187528030Y-43494438D01*
X187528030Y-43494438D02*
X187480411Y-43542057D01*
X187480411Y-43542057D02*
X187432792Y-43637295D01*
X187432792Y-43637295D02*
X187432792Y-43780152D01*
X187432792Y-43780152D02*
X187480411Y-43875390D01*
X187480411Y-43875390D02*
X187528030Y-43923009D01*
X187528030Y-43923009D02*
X187623268Y-43970628D01*
X187623268Y-43970628D02*
X188004220Y-43970628D01*
X187004220Y-44446819D02*
X187004220Y-43446819D01*
X186528030Y-44446819D02*
X186528030Y-43446819D01*
X186528030Y-43446819D02*
X185956602Y-44446819D01*
X185956602Y-44446819D02*
X185956602Y-43446819D01*
X185289935Y-43446819D02*
X185194697Y-43446819D01*
X185194697Y-43446819D02*
X185099459Y-43494438D01*
X185099459Y-43494438D02*
X185051840Y-43542057D01*
X185051840Y-43542057D02*
X185004221Y-43637295D01*
X185004221Y-43637295D02*
X184956602Y-43827771D01*
X184956602Y-43827771D02*
X184956602Y-44065866D01*
X184956602Y-44065866D02*
X185004221Y-44256342D01*
X185004221Y-44256342D02*
X185051840Y-44351580D01*
X185051840Y-44351580D02*
X185099459Y-44399200D01*
X185099459Y-44399200D02*
X185194697Y-44446819D01*
X185194697Y-44446819D02*
X185289935Y-44446819D01*
X185289935Y-44446819D02*
X185385173Y-44399200D01*
X185385173Y-44399200D02*
X185432792Y-44351580D01*
X185432792Y-44351580D02*
X185480411Y-44256342D01*
X185480411Y-44256342D02*
X185528030Y-44065866D01*
X185528030Y-44065866D02*
X185528030Y-43827771D01*
X185528030Y-43827771D02*
X185480411Y-43637295D01*
X185480411Y-43637295D02*
X185432792Y-43542057D01*
X185432792Y-43542057D02*
X185385173Y-43494438D01*
X185385173Y-43494438D02*
X185289935Y-43446819D01*
X175431220Y-44446819D02*
X175431220Y-43446819D01*
X175431220Y-43446819D02*
X175193125Y-43446819D01*
X175193125Y-43446819D02*
X175050268Y-43494438D01*
X175050268Y-43494438D02*
X174955030Y-43589676D01*
X174955030Y-43589676D02*
X174907411Y-43684914D01*
X174907411Y-43684914D02*
X174859792Y-43875390D01*
X174859792Y-43875390D02*
X174859792Y-44018247D01*
X174859792Y-44018247D02*
X174907411Y-44208723D01*
X174907411Y-44208723D02*
X174955030Y-44303961D01*
X174955030Y-44303961D02*
X175050268Y-44399200D01*
X175050268Y-44399200D02*
X175193125Y-44446819D01*
X175193125Y-44446819D02*
X175431220Y-44446819D01*
X174431220Y-44446819D02*
X174431220Y-43446819D01*
X173955030Y-44446819D02*
X173955030Y-43446819D01*
X173955030Y-43446819D02*
X173383602Y-44446819D01*
X173383602Y-44446819D02*
X173383602Y-43446819D01*
X172478840Y-43446819D02*
X172669316Y-43446819D01*
X172669316Y-43446819D02*
X172764554Y-43494438D01*
X172764554Y-43494438D02*
X172812173Y-43542057D01*
X172812173Y-43542057D02*
X172907411Y-43684914D01*
X172907411Y-43684914D02*
X172955030Y-43875390D01*
X172955030Y-43875390D02*
X172955030Y-44256342D01*
X172955030Y-44256342D02*
X172907411Y-44351580D01*
X172907411Y-44351580D02*
X172859792Y-44399200D01*
X172859792Y-44399200D02*
X172764554Y-44446819D01*
X172764554Y-44446819D02*
X172574078Y-44446819D01*
X172574078Y-44446819D02*
X172478840Y-44399200D01*
X172478840Y-44399200D02*
X172431221Y-44351580D01*
X172431221Y-44351580D02*
X172383602Y-44256342D01*
X172383602Y-44256342D02*
X172383602Y-44018247D01*
X172383602Y-44018247D02*
X172431221Y-43923009D01*
X172431221Y-43923009D02*
X172478840Y-43875390D01*
X172478840Y-43875390D02*
X172574078Y-43827771D01*
X172574078Y-43827771D02*
X172764554Y-43827771D01*
X172764554Y-43827771D02*
X172859792Y-43875390D01*
X172859792Y-43875390D02*
X172907411Y-43923009D01*
X172907411Y-43923009D02*
X172955030Y-44018247D01*
X179669839Y-44161104D02*
X179193649Y-44161104D01*
X179765077Y-44446819D02*
X179431744Y-43446819D01*
X179431744Y-43446819D02*
X179098411Y-44446819D01*
X178765077Y-44446819D02*
X178765077Y-43446819D01*
X178288887Y-44446819D02*
X178288887Y-43446819D01*
X178288887Y-43446819D02*
X177717459Y-44446819D01*
X177717459Y-44446819D02*
X177717459Y-43446819D01*
X177050792Y-43446819D02*
X176955554Y-43446819D01*
X176955554Y-43446819D02*
X176860316Y-43494438D01*
X176860316Y-43494438D02*
X176812697Y-43542057D01*
X176812697Y-43542057D02*
X176765078Y-43637295D01*
X176765078Y-43637295D02*
X176717459Y-43827771D01*
X176717459Y-43827771D02*
X176717459Y-44065866D01*
X176717459Y-44065866D02*
X176765078Y-44256342D01*
X176765078Y-44256342D02*
X176812697Y-44351580D01*
X176812697Y-44351580D02*
X176860316Y-44399200D01*
X176860316Y-44399200D02*
X176955554Y-44446819D01*
X176955554Y-44446819D02*
X177050792Y-44446819D01*
X177050792Y-44446819D02*
X177146030Y-44399200D01*
X177146030Y-44399200D02*
X177193649Y-44351580D01*
X177193649Y-44351580D02*
X177241268Y-44256342D01*
X177241268Y-44256342D02*
X177288887Y-44065866D01*
X177288887Y-44065866D02*
X177288887Y-43827771D01*
X177288887Y-43827771D02*
X177241268Y-43637295D01*
X177241268Y-43637295D02*
X177193649Y-43542057D01*
X177193649Y-43542057D02*
X177146030Y-43494438D01*
X177146030Y-43494438D02*
X177050792Y-43446819D01*
X183860839Y-44161104D02*
X183384649Y-44161104D01*
X183956077Y-44446819D02*
X183622744Y-43446819D01*
X183622744Y-43446819D02*
X183289411Y-44446819D01*
X182956077Y-44446819D02*
X182956077Y-43446819D01*
X182479887Y-44446819D02*
X182479887Y-43446819D01*
X182479887Y-43446819D02*
X181908459Y-44446819D01*
X181908459Y-44446819D02*
X181908459Y-43446819D01*
X181479887Y-43542057D02*
X181432268Y-43494438D01*
X181432268Y-43494438D02*
X181337030Y-43446819D01*
X181337030Y-43446819D02*
X181098935Y-43446819D01*
X181098935Y-43446819D02*
X181003697Y-43494438D01*
X181003697Y-43494438D02*
X180956078Y-43542057D01*
X180956078Y-43542057D02*
X180908459Y-43637295D01*
X180908459Y-43637295D02*
X180908459Y-43732533D01*
X180908459Y-43732533D02*
X180956078Y-43875390D01*
X180956078Y-43875390D02*
X181527506Y-44446819D01*
X181527506Y-44446819D02*
X180908459Y-44446819D01*
X171240220Y-44446819D02*
X171240220Y-43446819D01*
X171240220Y-43446819D02*
X171002125Y-43446819D01*
X171002125Y-43446819D02*
X170859268Y-43494438D01*
X170859268Y-43494438D02*
X170764030Y-43589676D01*
X170764030Y-43589676D02*
X170716411Y-43684914D01*
X170716411Y-43684914D02*
X170668792Y-43875390D01*
X170668792Y-43875390D02*
X170668792Y-44018247D01*
X170668792Y-44018247D02*
X170716411Y-44208723D01*
X170716411Y-44208723D02*
X170764030Y-44303961D01*
X170764030Y-44303961D02*
X170859268Y-44399200D01*
X170859268Y-44399200D02*
X171002125Y-44446819D01*
X171002125Y-44446819D02*
X171240220Y-44446819D01*
X170240220Y-44446819D02*
X170240220Y-43446819D01*
X169764030Y-44446819D02*
X169764030Y-43446819D01*
X169764030Y-43446819D02*
X169192602Y-44446819D01*
X169192602Y-44446819D02*
X169192602Y-43446819D01*
X168287840Y-43780152D02*
X168287840Y-44446819D01*
X168525935Y-43399200D02*
X168764030Y-44113485D01*
X168764030Y-44113485D02*
X168144983Y-44113485D01*
X166922220Y-44446819D02*
X166922220Y-43446819D01*
X166922220Y-43446819D02*
X166684125Y-43446819D01*
X166684125Y-43446819D02*
X166541268Y-43494438D01*
X166541268Y-43494438D02*
X166446030Y-43589676D01*
X166446030Y-43589676D02*
X166398411Y-43684914D01*
X166398411Y-43684914D02*
X166350792Y-43875390D01*
X166350792Y-43875390D02*
X166350792Y-44018247D01*
X166350792Y-44018247D02*
X166398411Y-44208723D01*
X166398411Y-44208723D02*
X166446030Y-44303961D01*
X166446030Y-44303961D02*
X166541268Y-44399200D01*
X166541268Y-44399200D02*
X166684125Y-44446819D01*
X166684125Y-44446819D02*
X166922220Y-44446819D01*
X165922220Y-44446819D02*
X165922220Y-43446819D01*
X165446030Y-44446819D02*
X165446030Y-43446819D01*
X165446030Y-43446819D02*
X164874602Y-44446819D01*
X164874602Y-44446819D02*
X164874602Y-43446819D01*
X164446030Y-43542057D02*
X164398411Y-43494438D01*
X164398411Y-43494438D02*
X164303173Y-43446819D01*
X164303173Y-43446819D02*
X164065078Y-43446819D01*
X164065078Y-43446819D02*
X163969840Y-43494438D01*
X163969840Y-43494438D02*
X163922221Y-43542057D01*
X163922221Y-43542057D02*
X163874602Y-43637295D01*
X163874602Y-43637295D02*
X163874602Y-43732533D01*
X163874602Y-43732533D02*
X163922221Y-43875390D01*
X163922221Y-43875390D02*
X164493649Y-44446819D01*
X164493649Y-44446819D02*
X163874602Y-44446819D01*
X162731220Y-44446819D02*
X162731220Y-43446819D01*
X162731220Y-43446819D02*
X162493125Y-43446819D01*
X162493125Y-43446819D02*
X162350268Y-43494438D01*
X162350268Y-43494438D02*
X162255030Y-43589676D01*
X162255030Y-43589676D02*
X162207411Y-43684914D01*
X162207411Y-43684914D02*
X162159792Y-43875390D01*
X162159792Y-43875390D02*
X162159792Y-44018247D01*
X162159792Y-44018247D02*
X162207411Y-44208723D01*
X162207411Y-44208723D02*
X162255030Y-44303961D01*
X162255030Y-44303961D02*
X162350268Y-44399200D01*
X162350268Y-44399200D02*
X162493125Y-44446819D01*
X162493125Y-44446819D02*
X162731220Y-44446819D01*
X161731220Y-44446819D02*
X161731220Y-43446819D01*
X161255030Y-44446819D02*
X161255030Y-43446819D01*
X161255030Y-43446819D02*
X160683602Y-44446819D01*
X160683602Y-44446819D02*
X160683602Y-43446819D01*
X160016935Y-43446819D02*
X159921697Y-43446819D01*
X159921697Y-43446819D02*
X159826459Y-43494438D01*
X159826459Y-43494438D02*
X159778840Y-43542057D01*
X159778840Y-43542057D02*
X159731221Y-43637295D01*
X159731221Y-43637295D02*
X159683602Y-43827771D01*
X159683602Y-43827771D02*
X159683602Y-44065866D01*
X159683602Y-44065866D02*
X159731221Y-44256342D01*
X159731221Y-44256342D02*
X159778840Y-44351580D01*
X159778840Y-44351580D02*
X159826459Y-44399200D01*
X159826459Y-44399200D02*
X159921697Y-44446819D01*
X159921697Y-44446819D02*
X160016935Y-44446819D01*
X160016935Y-44446819D02*
X160112173Y-44399200D01*
X160112173Y-44399200D02*
X160159792Y-44351580D01*
X160159792Y-44351580D02*
X160207411Y-44256342D01*
X160207411Y-44256342D02*
X160255030Y-44065866D01*
X160255030Y-44065866D02*
X160255030Y-43827771D01*
X160255030Y-43827771D02*
X160207411Y-43637295D01*
X160207411Y-43637295D02*
X160159792Y-43542057D01*
X160159792Y-43542057D02*
X160112173Y-43494438D01*
X160112173Y-43494438D02*
X160016935Y-43446819D01*
X158048077Y-43446819D02*
X157714744Y-44446819D01*
X157714744Y-44446819D02*
X157381411Y-43446819D01*
X157048077Y-44446819D02*
X157048077Y-43446819D01*
X156571887Y-44446819D02*
X156571887Y-43446819D01*
X156571887Y-43446819D02*
X156000459Y-44446819D01*
X156000459Y-44446819D02*
X156000459Y-43446819D01*
M02*
