%TF.GenerationSoftware,KiCad,Pcbnew,7.0.7*%
%TF.CreationDate,2023-10-14T23:25:35+09:00*%
%TF.ProjectId,TMA-1,544d412d-312e-46b6-9963-61645f706362,rev?*%
%TF.SameCoordinates,Original*%
%TF.FileFunction,Soldermask,Bot*%
%TF.FilePolarity,Negative*%
%FSLAX46Y46*%
G04 Gerber Fmt 4.6, Leading zero omitted, Abs format (unit mm)*
G04 Created by KiCad (PCBNEW 7.0.7) date 2023-10-14 23:25:35*
%MOMM*%
%LPD*%
G01*
G04 APERTURE LIST*
G04 Aperture macros list*
%AMRoundRect*
0 Rectangle with rounded corners*
0 $1 Rounding radius*
0 $2 $3 $4 $5 $6 $7 $8 $9 X,Y pos of 4 corners*
0 Add a 4 corners polygon primitive as box body*
4,1,4,$2,$3,$4,$5,$6,$7,$8,$9,$2,$3,0*
0 Add four circle primitives for the rounded corners*
1,1,$1+$1,$2,$3*
1,1,$1+$1,$4,$5*
1,1,$1+$1,$6,$7*
1,1,$1+$1,$8,$9*
0 Add four rect primitives between the rounded corners*
20,1,$1+$1,$2,$3,$4,$5,0*
20,1,$1+$1,$4,$5,$6,$7,0*
20,1,$1+$1,$6,$7,$8,$9,0*
20,1,$1+$1,$8,$9,$2,$3,0*%
G04 Aperture macros list end*
%ADD10O,3.048800X1.626400*%
%ADD11C,1.600000*%
%ADD12O,1.600000X1.600000*%
%ADD13R,1.500000X1.500000*%
%ADD14C,1.500000*%
%ADD15R,1.800000X1.800000*%
%ADD16C,1.800000*%
%ADD17C,1.524000*%
%ADD18R,1.600000X1.600000*%
%ADD19O,2.500000X1.500000*%
%ADD20C,6.000000*%
%ADD21C,1.700000*%
%ADD22C,3.200000*%
%ADD23RoundRect,0.250001X-1.099999X-1.599999X1.099999X-1.599999X1.099999X1.599999X-1.099999X1.599999X0*%
%ADD24O,2.700000X3.700000*%
%ADD25O,1.700000X1.700000*%
%ADD26R,1.700000X1.700000*%
G04 APERTURE END LIST*
D10*
%TO.C,U2*%
X210439000Y-144867000D03*
X210439000Y-142327000D03*
X210439000Y-111847000D03*
X187579000Y-144867000D03*
X187579000Y-129627000D03*
X187579000Y-111847000D03*
X187579000Y-109307000D03*
X187579000Y-114387000D03*
X187579000Y-122007000D03*
X187579000Y-99147000D03*
X187579000Y-101687000D03*
X187579000Y-104227000D03*
X210439000Y-106767000D03*
X210439000Y-104227000D03*
X210439000Y-101687000D03*
X210439000Y-114387000D03*
X210439000Y-109307000D03*
X210439000Y-116927000D03*
X187579000Y-106767000D03*
X187579000Y-116927000D03*
X187579000Y-119467000D03*
X187579000Y-124547000D03*
X187579000Y-127087000D03*
X187579000Y-132167000D03*
X187579000Y-139787000D03*
X187579000Y-142327000D03*
X210439000Y-124547000D03*
X210439000Y-122007000D03*
X210439000Y-119467000D03*
X210439000Y-129627000D03*
X210439000Y-127087000D03*
X210439000Y-134707000D03*
X210439000Y-132167000D03*
X210439000Y-139787000D03*
X210439000Y-137247000D03*
X187579000Y-134707000D03*
X187579000Y-137247000D03*
X210439000Y-99147000D03*
%TD*%
D11*
%TO.C,R6*%
X149860000Y-139827000D03*
D12*
X149860000Y-129667000D03*
%TD*%
D13*
%TO.C,Q5*%
X111306000Y-155448000D03*
D14*
X111306000Y-152908000D03*
X111306000Y-150368000D03*
%TD*%
D11*
%TO.C,R3*%
X140716000Y-139827000D03*
D12*
X140716000Y-129667000D03*
%TD*%
D11*
%TO.C,R4*%
X143764000Y-139827000D03*
D12*
X143764000Y-129667000D03*
%TD*%
D11*
%TO.C,R18*%
X117602000Y-137668000D03*
D12*
X117602000Y-147828000D03*
%TD*%
D15*
%TO.C,D4*%
X103826000Y-132080000D03*
D16*
X106366000Y-132080000D03*
%TD*%
D11*
%TO.C,R38*%
X138938000Y-154940000D03*
D12*
X149098000Y-154940000D03*
%TD*%
D11*
%TO.C,R19*%
X120650000Y-137668000D03*
D12*
X120650000Y-147828000D03*
%TD*%
D11*
%TO.C,R8*%
X87122000Y-137668000D03*
D12*
X87122000Y-147828000D03*
%TD*%
D11*
%TO.C,R42*%
X194691000Y-92035000D03*
D12*
X204851000Y-92035000D03*
%TD*%
D11*
%TO.C,R31*%
X188671200Y-59537600D03*
D12*
X188671200Y-69697600D03*
%TD*%
D11*
%TO.C,R32*%
X188671200Y-71983600D03*
D12*
X188671200Y-82143600D03*
%TD*%
D15*
%TO.C,D5*%
X111426000Y-132080000D03*
D16*
X113966000Y-132080000D03*
%TD*%
D11*
%TO.C,R37*%
X138938000Y-151892000D03*
D12*
X149098000Y-151892000D03*
%TD*%
D15*
%TO.C,D3*%
X96226000Y-132080000D03*
D16*
X98766000Y-132080000D03*
%TD*%
D11*
%TO.C,R17*%
X114554000Y-137668000D03*
D12*
X114554000Y-147828000D03*
%TD*%
D17*
%TO.C,U7*%
X165450000Y-105867000D03*
X167990000Y-105867000D03*
X170530000Y-105867000D03*
X173070000Y-105867000D03*
%TD*%
D11*
%TO.C,R29*%
X185623200Y-59537600D03*
D12*
X185623200Y-69697600D03*
%TD*%
D11*
%TO.C,R35*%
X153416000Y-145288000D03*
D12*
X153416000Y-155448000D03*
%TD*%
D11*
%TO.C,R9*%
X90170000Y-137668000D03*
D12*
X90170000Y-147828000D03*
%TD*%
D13*
%TO.C,Q6*%
X117656000Y-155448000D03*
D14*
X117656000Y-152908000D03*
X117656000Y-150368000D03*
%TD*%
D13*
%TO.C,Q7*%
X124058000Y-155448000D03*
D14*
X124058000Y-152908000D03*
X124058000Y-150368000D03*
%TD*%
D18*
%TO.C,U5*%
X181219000Y-147584000D03*
D12*
X178679000Y-147584000D03*
X176139000Y-147584000D03*
X173599000Y-147584000D03*
X173599000Y-155204000D03*
X176139000Y-155204000D03*
X178679000Y-155204000D03*
X181219000Y-155204000D03*
%TD*%
D11*
%TO.C,R27*%
X182575200Y-59537600D03*
D12*
X182575200Y-69697600D03*
%TD*%
D11*
%TO.C,R41*%
X194691000Y-88987000D03*
D12*
X204851000Y-88987000D03*
%TD*%
D19*
%TO.C,SW1*%
X205577000Y-63547000D03*
X205577000Y-58547000D03*
X205577000Y-61047000D03*
X209677000Y-63547000D03*
X209677000Y-58547000D03*
X209677000Y-61047000D03*
%TD*%
D11*
%TO.C,R14*%
X105410000Y-137668000D03*
D12*
X105410000Y-147828000D03*
%TD*%
D20*
%TO.C,REF\u002A\u002A*%
X78740000Y-35687000D03*
%TD*%
%TO.C,REF\u002A\u002A*%
X210312000Y-35687000D03*
%TD*%
D11*
%TO.C,R15*%
X108458000Y-137668000D03*
D12*
X108458000Y-147828000D03*
%TD*%
D11*
%TO.C,R24*%
X163322000Y-75946000D03*
D12*
X173482000Y-75946000D03*
%TD*%
D11*
%TO.C,R2*%
X137654000Y-139827000D03*
D12*
X137654000Y-129667000D03*
%TD*%
D17*
%TO.C,U8*%
X199898000Y-80623000D03*
X199898000Y-78083000D03*
X199898000Y-75543000D03*
X199898000Y-73003000D03*
X199898000Y-70463000D03*
X199898000Y-67923000D03*
%TD*%
D20*
%TO.C,REF\u002A\u002A*%
X210312000Y-153035000D03*
%TD*%
D11*
%TO.C,R11*%
X96266000Y-137668000D03*
D12*
X96266000Y-147828000D03*
%TD*%
D11*
%TO.C,R23*%
X150876000Y-75946000D03*
D12*
X161036000Y-75946000D03*
%TD*%
D11*
%TO.C,R21*%
X126746000Y-137668000D03*
D12*
X126746000Y-147828000D03*
%TD*%
D11*
%TO.C,R26*%
X179527200Y-71983600D03*
D12*
X179527200Y-82143600D03*
%TD*%
D13*
%TO.C,Q2*%
X92308000Y-155448000D03*
D14*
X92308000Y-152908000D03*
X92308000Y-150368000D03*
%TD*%
D11*
%TO.C,R13*%
X102362000Y-137668000D03*
D12*
X102362000Y-147828000D03*
%TD*%
D11*
%TO.C,R30*%
X185623200Y-71983600D03*
D12*
X185623200Y-82143600D03*
%TD*%
D11*
%TO.C,R33*%
X138938000Y-145796000D03*
D12*
X149098000Y-145796000D03*
%TD*%
D13*
%TO.C,Q3*%
X98658000Y-155448000D03*
D14*
X98658000Y-152908000D03*
X98658000Y-150368000D03*
%TD*%
D11*
%TO.C,R28*%
X182575200Y-71983600D03*
D12*
X182575200Y-82143600D03*
%TD*%
D11*
%TO.C,R5*%
X146812000Y-139827000D03*
D12*
X146812000Y-129667000D03*
%TD*%
D11*
%TO.C,R40*%
X165959000Y-81915000D03*
D12*
X155799000Y-81915000D03*
%TD*%
D13*
%TO.C,Q8*%
X130512000Y-155448000D03*
D14*
X130512000Y-152908000D03*
X130512000Y-150368000D03*
%TD*%
D11*
%TO.C,R36*%
X156464000Y-155448000D03*
D12*
X156464000Y-145288000D03*
%TD*%
D11*
%TO.C,R25*%
X179527200Y-59537600D03*
D12*
X179527200Y-69697600D03*
%TD*%
D11*
%TO.C,R10*%
X93218000Y-137668000D03*
D12*
X93218000Y-147828000D03*
%TD*%
D21*
%TO.C,U6*%
X180775000Y-91313000D03*
X180775000Y-93853000D03*
X180775000Y-96393000D03*
X180775000Y-98933000D03*
X155775000Y-98933000D03*
X155775000Y-96393000D03*
X155775000Y-93853000D03*
X155775000Y-91313000D03*
X155775000Y-88773000D03*
X180775000Y-88773000D03*
%TD*%
D15*
%TO.C,D2*%
X88626000Y-132080000D03*
D16*
X91166000Y-132080000D03*
%TD*%
D15*
%TO.C,D1*%
X81026000Y-132080000D03*
D16*
X83566000Y-132080000D03*
%TD*%
D22*
%TO.C,J1*%
X152636000Y-43044000D03*
X207836000Y-43044000D03*
D23*
X157136000Y-47244000D03*
D24*
X161336000Y-47244000D03*
X165536000Y-47244000D03*
X169736000Y-47244000D03*
X173936000Y-47244000D03*
X178136000Y-47244000D03*
X182336000Y-47244000D03*
X186536000Y-47244000D03*
X190736000Y-47244000D03*
X194936000Y-47244000D03*
X199136000Y-47244000D03*
X203336000Y-47244000D03*
X157136000Y-52744000D03*
X161336000Y-52744000D03*
X165536000Y-52744000D03*
X169736000Y-52744000D03*
X173936000Y-52744000D03*
X178136000Y-52744000D03*
X182336000Y-52744000D03*
X186536000Y-52744000D03*
X190736000Y-52744000D03*
X194936000Y-52744000D03*
X199136000Y-52744000D03*
X203336000Y-52744000D03*
%TD*%
D18*
%TO.C,U4*%
X169027000Y-147584000D03*
D12*
X166487000Y-147584000D03*
X163947000Y-147584000D03*
X161407000Y-147584000D03*
X161407000Y-155204000D03*
X163947000Y-155204000D03*
X166487000Y-155204000D03*
X169027000Y-155204000D03*
%TD*%
D11*
%TO.C,R1*%
X134620000Y-139827000D03*
D12*
X134620000Y-129667000D03*
%TD*%
D11*
%TO.C,R39*%
X165959000Y-84963000D03*
D12*
X155799000Y-84963000D03*
%TD*%
D11*
%TO.C,R20*%
X123698000Y-137668000D03*
D12*
X123698000Y-147828000D03*
%TD*%
D17*
%TO.C,U3*%
X170606000Y-57848500D03*
X170606000Y-60388500D03*
X170606000Y-68788500D03*
X170606000Y-71328500D03*
X152146000Y-57848500D03*
X152146000Y-60388500D03*
X152146000Y-68788500D03*
X152146000Y-71328500D03*
%TD*%
D13*
%TO.C,Q4*%
X105008000Y-155448000D03*
D14*
X105008000Y-152908000D03*
X105008000Y-150368000D03*
%TD*%
D18*
%TO.C,C1*%
X189550113Y-90257000D03*
D11*
X187550113Y-90257000D03*
%TD*%
%TO.C,R22*%
X129794000Y-137668000D03*
D12*
X129794000Y-147828000D03*
%TD*%
D20*
%TO.C,REF\u002A\u002A*%
X78740000Y-153035000D03*
%TD*%
D15*
%TO.C,D6*%
X119026000Y-132080000D03*
D16*
X121566000Y-132080000D03*
%TD*%
D11*
%TO.C,R16*%
X111506000Y-137668000D03*
D12*
X111506000Y-147828000D03*
%TD*%
D25*
%TO.C,U1*%
X79756000Y-62103000D03*
X145798200Y-74803000D03*
X143258200Y-74803000D03*
X145798200Y-77343000D03*
X143258200Y-77343000D03*
X145798200Y-82423000D03*
X143258200Y-82423000D03*
X145798200Y-84963000D03*
X143258200Y-84963000D03*
X143258200Y-92583000D03*
X143258200Y-100203000D03*
X145798200Y-102743000D03*
X143258200Y-102743000D03*
X145798200Y-105283000D03*
X143258200Y-105283000D03*
X145798200Y-107823000D03*
X143258200Y-107823000D03*
X145798200Y-110363000D03*
X79756000Y-112903000D03*
X77216000Y-110363000D03*
X79756000Y-110363000D03*
X77216000Y-107823000D03*
X79756000Y-107823000D03*
X77216000Y-105283000D03*
X79756000Y-105283000D03*
X77216000Y-102743000D03*
X79756000Y-102743000D03*
X77216000Y-100203000D03*
X77216000Y-97663000D03*
X79756000Y-97663000D03*
X77216000Y-95123000D03*
X79756000Y-95123000D03*
X79756000Y-90043000D03*
X77216000Y-87503000D03*
X77216000Y-84963000D03*
X79756000Y-84963000D03*
X79756000Y-79883000D03*
X77216000Y-77343000D03*
X77216000Y-72263000D03*
X79756000Y-72263000D03*
X79756000Y-59563000D03*
X77216000Y-69723000D03*
X145798200Y-59563000D03*
D26*
X100076000Y-56255500D03*
D25*
X102616000Y-56255500D03*
X105156000Y-56255500D03*
X107696000Y-56255500D03*
X77216000Y-57023000D03*
X77216000Y-59563000D03*
X77216000Y-62103000D03*
X77216000Y-64643000D03*
X77216000Y-67183000D03*
X77216000Y-74803000D03*
X77216000Y-79883000D03*
X77216000Y-82423000D03*
X77216000Y-90043000D03*
X77216000Y-92583000D03*
X77216000Y-112903000D03*
D26*
X79756000Y-54483000D03*
D25*
X79756000Y-57023000D03*
X79756000Y-64643000D03*
X79756000Y-67183000D03*
X79756000Y-69723000D03*
X79756000Y-74803000D03*
X79756000Y-77343000D03*
X79756000Y-82423000D03*
X79756000Y-87503000D03*
X79756000Y-92583000D03*
X79756000Y-100203000D03*
X143258200Y-54483000D03*
X143258200Y-57023000D03*
X143258200Y-59563000D03*
X143258200Y-62103000D03*
X143258200Y-64643000D03*
X143258200Y-67183000D03*
X143258200Y-69723000D03*
X143258200Y-72263000D03*
X143258200Y-79883000D03*
X143258200Y-87503000D03*
X143258200Y-90043000D03*
X143258200Y-95123000D03*
X143258200Y-97663000D03*
X143258200Y-110363000D03*
X143258200Y-112903000D03*
X145798200Y-57023000D03*
X145798200Y-62103000D03*
X145798200Y-64643000D03*
X145798200Y-67183000D03*
X145798200Y-69723000D03*
X145798200Y-72263000D03*
X145798200Y-79883000D03*
X145798200Y-87503000D03*
X145798200Y-90043000D03*
X145798200Y-92583000D03*
X145798200Y-95123000D03*
X145798200Y-97663000D03*
X145798200Y-100203000D03*
X145798200Y-112903000D03*
X77216000Y-54483000D03*
D26*
X145798200Y-54483000D03*
%TD*%
D11*
%TO.C,R34*%
X138938000Y-148844000D03*
D12*
X149098000Y-148844000D03*
%TD*%
D11*
%TO.C,R7*%
X84074000Y-137668000D03*
D12*
X84074000Y-147828000D03*
%TD*%
D26*
%TO.C,J2*%
X210693000Y-86487000D03*
D25*
X210693000Y-89027000D03*
X210693000Y-91567000D03*
%TD*%
D11*
%TO.C,R12*%
X99314000Y-137668000D03*
D12*
X99314000Y-147828000D03*
%TD*%
D13*
%TO.C,Q1*%
X85958000Y-155448000D03*
D14*
X85958000Y-152908000D03*
X85958000Y-150368000D03*
%TD*%
M02*
